<?xml version="1.0" encoding="UTF-8"?>
<svg id="_圖層_1" data-name="圖層 1" xmlns="http://www.w3.org/2000/svg" viewBox="0 0 1205.56 364.05">
  <defs>
    <style>
      .cls-1 {
        fill: #0d0707;
      }
    </style>
  </defs>
  <path class="cls-1" d="m0,233.2s20.02-.43,20.47,1.51c0,0-3.09,2.8-2.65,3.67s2.21,3.45,6.63-1.73c0,0-1.77-5.18,0-6.9,1.77-1.73,4.42-3.24,4.42-3.24,0,0-11.49-8.2-11.49-11.43s-.44-10.78.88-11.43,7.51-2.16,10.61-.86c0,0,1.33,9.92,3.09,11.65s3.98,1.94,6.19,1.51c0,0,6.19,5.18,14.59,7.55s16.8,5.39,18.57,8.2c0,0,5.3,1.51,5.3-1.94,0,0,3.98-3.88,8.4-4.96,0,0-.88-4.75,0-6.26s11.49-7.76,16.8-18.55-13.7-29.77-13.7-31.71,7.51-31.28,9.72-34.94c0,0,11.49-4.53,14.59,3.24,0,0,3.54,18.98,6.63,20.71,3.09,1.73,29.62.65,35.36-5.18,5.75-5.82,8.4-12.51,10.61-17.69,0,0,11.05-7.76,15.03.22,0,0,6.63-2.8,11.93-10.14,0,0,15.91-9.27,18.57-11.65s0-4.75,0-7.76,26.39-22.86,26.39-22.86c0,0,5.65-.44,9.22-.58,3.57-.15,6.54-4.5,6.54-4.5,0,0-2.38-3.48-3.87-4.93,0,0,14.07-.17,15.38,0,0,0,7.16-9.04,8.95-13.14,0,0,12.98-5.47,24.95-10.93,0,0,23.16-21.49,25.71-22.23,0,0,11.96-7.7,19.6-5.34,0,0,14.51.37-6.87,15.65,0,0-9.67,7.33-10.69,8.94s-3.82,3.73,10.44-2.48c0,0,11.46-5.47,21.13-2.61,0,0,2.8.75,4.33,2.48s3.56,3.97,5.35,4.47,3.82,1.61,12.47,3.11c8.65,1.49,2.04,10.31,1.53,11.92s10.95-2.86,28.26-9.94c0,0,7.13-3.11,14-2.61s15.53,5.22-11.71,15.15c0,0-42.43,14.94-46.18,19,0,0-30.81,7.11-33.73,7.72-2.91.61-11.24,6.1-14.57,7.11,0,0-2.5.81,5,3.25,7.5,2.44,12.36,4.29,12.18,6.21,0,0-2.28,1.16-4.48,1.8,0,0-.97.9,1.4.94,0,0,.61,2.14.26,2.57s-12.64.04-12.64.04c0,0-5.88-7.41-6.58-7.58s-2.46-1.71-6.67,1.24c-4.21,2.96-21.6,15.98-24.14,17.18,0,0-6.15,1.93-6.85,2.01s-3.45,15.88-3.12,16.77,1.16,1.14,3.49,0c2.33-1.14,6.48-4.87,18.12.24,0,0-.17,1.14,13.13-.89,0,0,4.82-.73,13.8,3.41,0,0,4.16,2.19,16.12-12.41,0,0,10.64-18.98,24.6-18.41,0,0,13.46,1.87-1.66,19.14,0,0-22.11,25.39-26.43,29.6s-9.47,10.3-8.98,12.73c0,0-20.37,12.6-23.03,13.31s-2.65,2.11-2.37,7.96c0,0-9.38,7.53-11.86,10.63,0,0-9.73,22.87-11.11,25.19,0,0-4.35.87,11.28.29,0,0,5.74-2.99,4.95-6.66,0,0,6.13.19,8.11,7.34,0,0,27.11-1.54,41.95-1.26,0,0,12.47-.58,22.36,4.92,0,0,25.23-1.47,35.59,2.83,0,0,.44.97,10.58-3.44,0,0,16.32-5.16,29.11,3.98,0,0,23.29,20.63,34.82,23.75,11.53,3.13,17.94,12.5,17.94,12.5,0,0,5.55,11.67,4.7-3.75-.85-15.42-12.38-66.68-26.9-82.93,0,0-4.7-7.01-5.98-10.8,0,0,6.83-6.08,9.39-26.5,0,0,7.69-33.55,11.96-37.09s9.39-12.71,18.79-8.54c9.39,4.17-11.53,35.42,0,35.84,0,0,15.8-9.79,25.62-1.88,0,0,4.7,2.71,1.71,6.04,0,0,23.91-1.04,12.81,10.21,0,0,4.27,3.96,31.17-11.46,0,0,16.65-9.38,20.5-2.92,0,0,3.42,5.42-31.6,19.8,0,0-9.82,5-13.67,14.59,0,0-2.56,4.79-17.08,15,0,0,5.12,11.25,11.96,16.88,0,0,2.99.63,4.27,19.59,0,0,14.09,17.5,14.52,21.88,0,0,13.67,5.63,15.37-4.38,0,0,2.99-6.67,8.11-14.38,0,0,12.81-6.25,18.36-4.58,0,0,.43-3.96,4.27-4.58,3.84-.63,7.26.83,12.81,0,5.55-.83,2.99-3.13,15.37-2.5s17.94-28.55,19.64-29.8,22.21-18.13,26.05-17.71,5.12,3.96,2.56,8.33c-2.56,4.38-12.38,12.92-11.96,17.71,0,0,6.83,2.08,10.25-5.63,0,0,6.83-12.09,15.37-15.63,0,0,7.11-.36,0,12.18,0,0-4.4,5.56-3.67,6.8s8.51-2.65,25.52,6.54c0,0,6.33,4.15,7.96,3.89s-2.17-11.83,3.8-18.02c0,0,4.71-3.36,7.78-3.71,0,0,.51-9.17,0-12.65,0,0,5.91-5.5,20.23-2.71,0,0,.27-5.26,4.64-6.05,0,0,13.09-2.2,12.68,3.39,0,0-5.86.13,11.32-.13,0,0,6.95.8,7.5,9.71,0,0,.82.4,4.91-1.13,0,0,7.63-2.66,14.72,6.32,0,0-2.85,22.62,0,25.4,0,0,2.85.56,7.53.19,0,0,8.22-5.37,14.16-7.83,0,0,12.26-3.33,15.42-3.21s-1.41-12.79,1.46-18.39c0,0,22.16-37.4,22.94-41.21,0,0,4.43-14.12,15.9-13.99,0,0,15.38-4.2,3.39,24.8,0,0-2.61,10.68-2.35,11.7s9.12-2.04,22.68,2.93c0,0,14.6,5.22,18.77,4.83,4.17-.38,14.6-13.36,16.94-22.26,0,0,12.25-17.17,15.38-18.44,0,0,2.45-2.95-5.11-7,0,0,4.37-2.34,12.25-3.59,0,0,2.93-2.11-.88-3.51-3.8-1.41-6.09-.96-4.13-4.03,1.97-3.07,10.34-10,9.53-17.59,0,0,3.11-12.5,9.33-14.61,0,0,3.92-.99,6.49-.73s.41-15.11,1.49-19.93c0,0,11.09-12.6,6.63-18.8-4.46-6.2-20.28-23.55-18.66-28.7,0,0,.95-5.54,9.19-3.83,0,0,7.84,1.12,14.33,16.89,0,0,4.87,8.51,13.39,10.69,0,0,5.41,1.52,7.03-1.52,0,0,7.3-9.9,9.06-10.16s27.45-.07,43.67,5.61c0,0,5.68,1.52,11.9-8.38,0,0,13.39-17.48,21.23-18.14,0,0,11.36-1.52,7.98,6.2,0,0-4.6,12.73-17.04,22.56,0,0-.31,1.44.22,1.88s4.3-1.11,4.24,1.22c0,0,1.88,11.12-4.25,18.97,0,0-2.87,2.34-3.06,7.57,0,0,2.87,4.11-8.43,9.16,0,0-24.49,8.27-32.49,13.16,0,0-6.23,2.91,1.36,5.75,0,0,4.47,1.06-7.45,12.1,0,0-3.39,3.84-2.85,8.46,0,0,11.11.26,15.59,1.59s3.28,7.38,3.28,7.38c0,0-5.04.41-5.6,1.23s.28,1.64,1.12,3c.84,1.37-11.47,5.05-15.95,12.02,0,0-3.64,6.36-4.48,8.58,0,0-13.43,6.44-15.95,8.49-2.52,2.05-1.65,10.52,4.42,16.25,0,0-1.52,5.55-2.65,7.77s8.72,29.23,9.86,32.56,11.75-1.48,11.75-2.03,8.39.3,11.44,1.29-.81-1.59-.81-1.59c0,0,6.3.79,7.32.5s2.85-.4-4.27-2.98c0,0-4.27-1.59-4.47-2.18s5.08.69,12.6,3.17c0,0,12.4,4.17,17.69,4.17,0,0,9.76.79,14.84-1.09,0,0,4.07-.5,5.29-1.59,1.22-1.09,15.86,7.94,21.14,8.23,0,0,7.32,1.19,12.4,0,5.08-1.19,14.64-6.25,17.69-15.67,0,0,9.35-17.66,12.81-20.14,0,0,6.3-7.14,3.05-11.11-3.25-3.97-6.91-7.94-6.91-13,0,0,1.42-20.04,1.02-22.02s-3.86-9.52-4.47-13.99c0,0-.2-10.61,1.42-11.71s9.76-7.04,14.64,4.27c0,0,3.05,14.09,10.98,18.65,0,0,3.14,1.39,4.47-3.77s1.33,6.55,1.33,6.55v234.05H0v-130.85Z"/>
</svg>