<?xml version="1.0" encoding="UTF-8"?>
<svg id="_圖層_1" data-name="圖層 1" xmlns="http://www.w3.org/2000/svg" xmlns:xlink="http://www.w3.org/1999/xlink" viewBox="0 0 630.42 516.61">
  <defs>
    <style>
      .cls-1 {
        fill: #f7f8f8;
      }

      .cls-2 {
        fill: #eb6100;
      }

      .cls-3 {
        fill: #e60012;
      }

      .cls-4 {
        fill: #e61673;
      }

      .cls-5 {
        fill: #fff100;
      }

      .cls-6 {
        fill: #d70051;
      }

      .cls-7 {
        fill: #172a88;
      }

      .cls-8 {
        fill: #22ac38;
      }

      .cls-9 {
        fill: #231815;
      }

      .cls-10 {
        fill: #2ea7e0;
      }

      .cls-11 {
        fill: #601986;
      }

      .cls-12 {
        fill: url(#_橘_黃-3);
      }

      .cls-13 {
        fill: url(#_橘_黃-2);
      }

      .cls-14 {
        fill: url(#_橘_黃);
      }
    </style>
    <linearGradient id="_橘_黃" data-name="橘、黃" x1="155.66" y1="434.7" x2="483.41" y2="434.7" gradientUnits="userSpaceOnUse">
      <stop offset="0" stop-color="#fff21f"/>
      <stop offset=".01" stop-color="#feee1c"/>
      <stop offset=".1" stop-color="#fddc0c"/>
      <stop offset=".19" stop-color="#fcd003"/>
      <stop offset=".28" stop-color="#fccd00"/>
      <stop offset=".67" stop-color="#f1942e"/>
      <stop offset=".89" stop-color="#ea652d"/>
      <stop offset="1" stop-color="#e5352b"/>
    </linearGradient>
    <linearGradient id="_橘_黃-2" data-name="橘、黃" x1="402.96" y1="97.61" x2="603.05" y2="97.61" xlink:href="#_橘_黃"/>
    <linearGradient id="_橘_黃-3" data-name="橘、黃" x1="21.71" y1="362.93" x2="211.14" y2="362.93" xlink:href="#_橘_黃"/>
  </defs>
  <path class="cls-14" d="m155.66,516.61c2.72-31.9,5.01-63.87,12.62-95.12,2.47-10.15,5.42-20.12,11.04-29.07,1.37-2.18,2.92-4.26,4.94-7.17,5.75,5.19,11.18,10.08,16.6,14.97l.53-.43c-5.02-5.4-10.03-10.8-15.25-16.42,6.9-8.25,14.78-15.75,23.51-22.38,2.8-2.13,5.89-3.93,8.43-6.33,2.49-2.36,4.75-2.04,7.71-1.2,13.89,3.91,27.83,7.67,41.82,11.19,2.5.63,3.7,1.56,4.56,3.9,4.26,11.52,8.94,23.03,17.72,31.84,6.19,6.21,13.54,11.31,20.66,16.51,1.39,1.01,4.38.89,6.15.15,11.36-4.72,20.25-12.51,27.3-22.58,6.23-8.9,11.62-18.18,15.22-28.49.47-1.34,2.27-2.78,3.71-3.13,13.75-3.39,27.55-6.55,41.35-9.76.72-.17,1.65-.5,2.18-.21,14.19,7.87,29.36,14.15,41.6,25.23.28.25.46.6.56.73-3.76,5.79-7.45,11.47-11.15,17.16.26.18.53.36.79.54,4.07-5.2,8.14-10.4,12.51-15.99,4.66,4.71,8.31,9.37,9.8,15.09,4.35,16.72,9.15,33.39,12.24,50.36,4.26,23.4,7.12,47.06,10.58,70.61h-70.4c-1.1-21.87-1.08-43.74-.1-65.6.36-.06.72-.13,1.08-.19,1.96,5.12,3.93,10.24,5.89,15.35l.69-.21c-2.61-7.69-5.22-15.38-7.76-22.86h10.63c0-.12-.02-.24-.02-.37-2.66-.37-5.33-.73-7.99-1.1l-.2-1.15c4.56-3.37,8.98-6.84,10.67-12.52-3.62,4.83-7.25,9.6-13.48,11.44-2.11,25.68-2.42,51.42-.98,77.19h-46.93c6.36-12.43,14.24-23.42,27.33-29.47.4.17.8.34,1.21.51-1.29,4.86-2.59,9.71-3.88,14.57.31.09.63.17.94.26,1.44-4.78,3.24-9.49,4.21-14.36.65-3.27-1.19-4.31-4.25-2.82-1.74.85-3.32,2.05-4.94,3.13-10.51,7.06-16.84,17.54-22.98,28.17h-41.46c11.96-7.64,23.16-16.19,32.43-27.05-.88.3-1.54.87-2.22,1.4-10.01,7.81-20.03,15.61-30.03,23.42-.88.69-1.68,1.48-2.52,2.22h-35.2c7.89-5.97,15.78-11.93,23.68-17.9-.23-.32-.47-.63-.7-.95-2.61,1.98-5.21,3.98-7.84,5.94-5.82,4.32-11.65,8.61-17.48,12.91h-51.63c.06-1.43.03-2.87.19-4.29,2.67-23.32,4.17-46.68,2.44-70.16-.3-4.07,0-7.94-3.65-11.25-3.34-3.03-5.61-7.24-8.35-10.92-.2.14-.41.28-.61.43,3.51,5.36,7.03,10.71,11.19,17.05-3.18-.92-5.32-1.53-7.45-2.14l-.17.45c1.95,1.1,3.91,2.2,6.13,3.44-1.35,1.07-2.4,1.89-4.31,3.4,2.39-.65,3.71-1.02,5.43-1.48-.06,8.45-1.82,16.11-6.23,23.14l.95.4c2.02-3.88,4.04-7.76,6.23-11.97.16.97.41,1.69.38,2.39-.34,10.01-.53,20.04-1.14,30.04-.65,10.51-1.71,21-2.59,31.5h-71.96Z"/>
  <path class="cls-1" d="m172.11,193.31c0-30.63-.15-61.26.12-91.88.06-6.58,1.17-13.24,2.58-19.7,3.18-14.59,12.75-24.37,25.13-31.89,14.3-8.69,30.09-12.89,46.39-15.5,22.38-3.59,44.82-7.15,67.55-7.15,27.13,0,54.24,1.12,80.6,8.45,18.78,5.22,35.15,15,49.44,28.2,11.03,10.19,16.69,23.17,16.57,37.94-.28,33.48-.83,66.98-2.21,100.43-1.19,28.88-3.54,57.72-5.64,86.56-.6,8.29-2.02,16.53-3.19,24.77-.92,6.51-3.99,11.92-9.52,15.52-9.6,6.25-19.34,12.27-29.09,18.29-13.53,8.36-29.03,10.24-44.2,13.06-20.65,3.84-41.41,6.31-62.5,6.09-28.11-.29-55.29-5.83-81.2-15.97-15.29-5.98-29.29-15.26-39.6-28.94-7.13-9.46-10.13-20.06-10.36-31.72-.63-32.19-1.35-64.37-2.04-96.56.39,0,.78,0,1.17,0Zm68.88-84.34c49.71,16.91,99.84,16.21,150.21,3.08-50.31,11.66-100.38,11.8-150.21-3.08Z"/>
  <path class="cls-13" d="m402.96,29.63c5.19-2.7,9.42-4.9,13.65-7.1,5.99-3.12,12-6.18,17.94-9.39,4.04-2.18,7.86-2.47,12.12-.26,20.94,10.89,42.38,20.89,62.86,32.59,19.28,11.02,36.6,25.06,53.35,39.68,9.19,8.02,18.51,15.9,27.54,24.11,4.02,3.65,7.58,7.82,11.11,11.96,2.62,3.07,1.9,9.32-2.26,12.58-5.78,4.53-11.94,8.83-18.51,12.06-14.31,7.04-28.94,13.44-43.52,19.94-13.26,5.91-26.61,11.61-39.94,17.38-.79.34-1.68.46-2.49.68-2.67-6.6-5.3-7.76-12.3-5.42-4.76,1.6-9.46,3.37-14.76,5.27-.13-1.69-.41-3.4-.38-5.1.48-25.26,1.46-50.53,1.35-75.79-.09-20.84-8.95-37.72-25.66-50.58-12.01-9.24-24.81-16.92-40.09-22.6Z"/>
  <path class="cls-6" d="m164.7,259.69c-7.01-3.34-14.56-6.99-22.17-10.52-1.63-.76-3.45-1.15-5.2-1.63-4.6-1.26-7.93.5-8.55,5.24-.89,6.83-1.17,13.75-1.77,20.62-.13,1.52-.48,3.02-.88,5.43-3.27-1.66-6.2-2.72-8.66-4.46-18.33-13.01-36.58-26.14-54.82-39.28-4.42-3.19-8.81-6.43-13.08-9.82-2.75-2.18-4.3-1.47-5.51,1.55-1.68,4.21-3.48,8.38-5.26,12.55-.54,1.27-1.23,2.47-2.15,4.29-12.26-19.38-24.18-38.21-36.66-57.93,21.62-3.58,42.43-7.03,64.18-10.63-1.64,3.94-2.99,7.33-4.45,10.67-3.13,7.15-3.2,7.23,2.9,11.91,11.03,8.48,22.12,16.87,33.19,25.29.72.55,1.48,1.08,2.28,1.51,4.67,2.51,8.54.35,8.41-4.93-.09-3.89-1-7.76-1.16-11.66-.18-4.26-.33-8.6.28-12.79.59-4.08,3.48-5.52,7.19-3.87,16.59,7.41,33.11,14.95,49.6,22.58,1.03.47,2.17,2.06,2.18,3.15.14,14.45.1,28.9.1,42.72Z"/>
  <path class="cls-6" d="m467.33,220.86c6.94,3.49,14.41,7.29,21.94,10.98,1.62.79,3.42,1.22,5.16,1.74,4.57,1.36,7.94-.33,8.66-5.06,1.04-6.81,1.46-13.72,2.2-20.58.16-1.51.54-3,.99-5.41,3.23,1.72,6.14,2.85,8.56,4.64,18.05,13.4,36.02,26.91,53.98,40.43,4.36,3.28,8.67,6.62,12.87,10.09,2.7,2.24,4.27,1.56,5.54-1.43,1.77-4.17,3.65-8.3,5.53-12.43.57-1.25,1.29-2.44,2.24-4.24,11.85,19.63,23.36,38.71,35.42,58.7-21.69,3.12-42.57,6.13-64.39,9.27,1.73-3.91,3.15-7.27,4.68-10.58,3.28-7.08,3.35-7.16-2.65-11.97-10.85-8.71-21.76-17.33-32.65-25.98-.71-.57-1.45-1.12-2.24-1.56-4.61-2.6-8.53-.53-8.51,4.75.01,3.89.83,7.78.91,11.68.09,4.26.15,8.6-.55,12.78-.68,4.06-3.6,5.45-7.27,3.71-16.43-7.76-32.79-15.65-49.11-23.62-1.01-.5-2.13-2.11-2.11-3.19.16-14.45.52-28.9.81-42.71Z"/>
  <path class="cls-12" d="m169.86,314.84c8.35,17.52,22.61,28.82,41.28,36.31-4.76,3.5-8.66,6.38-12.57,9.25-.21.15-.5.22-.66.41-7.95,9.04-19.51,9.42-29.95,12.36-10.73,3.02-21.59,5.61-32.39,8.4-11.3,2.92-22.6,5.88-33.91,8.78-9.17,2.36-18.36,4.65-27.53,6.99-13.55,3.46-27.11,6.92-40.66,10.42-3.71.96-7.39,2.05-11.76,3.27,4.63-5.38,140.3-93.32,148.15-96.19Z"/>
  <path class="cls-5" d="m163.95,157.12c-12.98-8.29-24.92-15.92-36.86-23.53-28.32-18.06-56.64-36.1-84.94-54.19-4.05-2.59-7.99-5.37-11.95-8.11-6.83-4.72-10.07-11.82-12.25-19.4-.51-1.77.28-4.58,1.53-5.97.87-.97,3.91-1.02,5.34-.27,7.12,3.75,14.21,7.61,20.97,11.96,20.69,13.3,41.15,26.94,61.83,40.26,17.73,11.41,35.66,22.5,53.39,33.91,1.43.92,2.71,3.17,2.8,4.87.32,6.47.13,12.97.13,20.46Z"/>
  <path class="cls-8" d="m163.73,183.57c-7.28-4.61-13.87-8.71-20.39-12.92-36.99-23.87-74.05-47.65-110.88-71.76-5.91-3.87-11.1-8.98-16.11-14.02-2.06-2.07-3.21-5.34-4.03-8.27-1.38-4.94.43-7.06,5.36-5.5,6.01,1.9,12,4.44,17.34,7.75,18.59,11.53,36.89,23.53,55.32,35.32,23.26,14.88,46.51,29.77,69.84,44.54,2.48,1.57,3.7,3.24,3.61,6.25-.19,5.93-.06,11.88-.06,18.62Z"/>
  <path class="cls-3" d="m164.05,101.16c-11.77-7.31-23.4-14.47-34.96-21.73-25.15-15.77-50.28-31.56-75.38-47.41-6.33-4-12.25-8.65-15.87-15.31-2.06-3.78-3.07-8.18-4.16-12.41-.33-1.26.32-3.18,1.22-4.15.43-.47,2.64.28,3.78.95,15.63,9.12,31.25,18.27,46.8,27.52,26.51,15.78,52.97,31.66,79.47,47.46,1.61.96,2.94,1.6,2.5,4.1-1.14,6.39-1.85,12.85-2.76,19.28-.07.48-.34.94-.62,1.7Z"/>
  <path class="cls-11" d="m438.61,339.29c5.17-4.35,10.12-8.51,15.53-13.07,4.36,3.21,9.29,6.8,14.18,10.43,29.79,22.15,59.59,44.3,89.34,66.5,1.4,1.05,2.67,2.47,3.55,3.98,3.01,5.17,5.92,10.42,8.65,15.74.98,1.92,1.66,4.12,1.92,6.26.31,2.47-.88,3.83-3.53,2.52-5.81-2.89-12.14-5.09-17.3-8.88-37.5-27.51-74.76-55.35-112.09-83.09-.19-.14-.28-.41-.27-.4Z"/>
  <path class="cls-2" d="m164.23,129.59c-9.2-5.77-17.48-10.9-25.7-16.11-26.61-16.89-53.28-33.67-79.75-50.79-8.28-5.35-16.62-10.95-21.86-19.73-1.71-2.87-3.06-6.03-4.08-9.21-1.13-3.53.45-5.29,3.92-4.04,5.86,2.1,11.83,4.28,17.13,7.45,21.22,12.72,42.23,25.8,63.27,38.8,14.29,8.83,28.47,17.85,42.81,26.59,3.1,1.89,4.61,3.85,4.37,7.68-.39,6.08-.1,12.2-.1,19.35Z"/>
  <path class="cls-4" d="m416.88,350.06c6.33-3.26,11.59-6.08,16.98-8.62.79-.37,2.42.33,3.31.99,26.64,19.85,53.25,39.72,79.83,59.66,10.83,8.13,21.71,16.21,32.3,24.65,7.86,6.26,13.57,14.37,17.8,23.47.55,1.19,1.13,3.61.83,3.76-1.52.77-3.61,1.75-4.96,1.24-4.1-1.53-8.32-3.22-11.85-5.74-13.65-9.79-27.08-19.9-40.55-29.95-14.62-10.91-29.2-21.87-43.77-32.83-1.34-1.01-2.8-2.03-3.74-3.37-7.23-10.3-17.13-17.36-27.95-23.32-5.86-3.23-11.75-6.39-18.24-9.92Z"/>
  <path class="cls-7" d="m583.91,411.37c-3.67,1.38-7.27.53-10.32-1.49-7.48-4.97-14.83-10.14-22.04-15.48-31.18-23.1-62.27-46.32-93.47-69.38-2.38-1.76-3.01-3.22-2.09-6.09,1.18-3.67,1.64-7.58,2.5-11.81,11.46,5.82,23.19,10.1,33.25,18.19,22.42,18.03,45.46,35.3,68.25,52.86,1.13.87,2.24,1.86,3.53,2.44,12.37,5.63,15.59,17.77,20.53,28.69.15.33.1.77.09,1.16,0,.25-.12.5-.22.91Z"/>
  <path class="cls-10" d="m467.38,279.88c5.61,3.96,11.26,7.85,16.81,11.88,21.07,15.28,42.1,30.62,63.16,45.92,6.8,4.94,13.22,10.33,16.92,18.04,2,4.16,3.16,8.76,4.41,13.23.56,1.99-.34,3.81-2.79,3.59-2.5-.22-5.39-.2-7.36-1.46-8.08-5.19-16.09-10.55-23.74-16.35-19.59-14.87-38.98-30.01-58.44-45.07-1.34-1.04-3.11-1.74-2.38-4.28.26-.92-1.05-2.58-2.03-3.5-2.93-2.77-6.11-5.27-9.08-8-3.17-2.91-3.12-4.85-.3-7.93,1.55-1.7,2.87-3.6,4.81-6.08Z"/>
  <path d="m280.31,367.06c22.86,2.54,45.67,1.92,69.49-1.63-1.9,4.8-3.1,9.17-5.24,13.01-6.31,11.3-14.65,20.84-25.65,27.91-3.35,2.16-6.17,2.12-9.59-.26-13.83-9.62-23.49-22.33-29.17-38.13-.07-.2.08-.48.15-.89Z"/>
  <path d="m357.45,364.54c-2.87,10.64-8.5,19.62-14.57,28.41-6.9,9.99-15.64,17.74-26.87,22.45-1.41.59-3.66.48-4.99-.27-18.91-10.59-30.57-26.96-37.14-47.29-.15-.45-.13-.95-.19-1.43l1.01-.81c1.2,1.27,2.8,2.35,3.55,3.85,4.48,8.95,8.24,18.38,15.58,25.5,4.74,4.61,9.96,8.73,15.02,13.01,3.34,2.83,6.83,2.68,10.39.35,14.82-9.7,25.9-22.41,31.45-39.44,1.08-3.32,2.38-5.4,6.76-4.32Z"/>
  <path class="cls-9" d="m274.99,195.9c.08-.1.8-.85,1.4-1.69,4.44-6.25,9.1-12.36,13.14-18.85,1.36-2.19,1.12-5.37,1.61-8.11-2.73-.39-5.59-1.49-8.17-1.04-9.73,1.68-19.4,3.75-29.02,5.95-2.51.58-4.19.59-6.1-1.45-4-4.28-8.08-8.55-12.6-12.24-4.7-3.84-9.84-7.21-15.04-10.36-2.95-1.78-4.49-.61-4.2,2.8.25,2.97.68,5.97,1.44,8.85,2.06,7.87,4.33,15.69,6.59,23.81-.96.41-2.22.78-3.3,1.44-5.77,3.49-11.64,6.83-17.18,10.66-3.79,2.63-6.19,6.53-5.46,11.41,1.96,13.08,8.27,23.14,20.73,28.66,4.77,2.11,9.38,1.78,13.72-1.2,4.04-2.77,8.06-5.58,11.45-7.93,3.11,5.48,6.02,11.09,9.45,16.37,1.07,1.64,3.48,3.35,5.32,3.4,9.51.25,19.07-.13,27.77-4.66,8.8-4.58,10.5-9.13,5.75-17.73-5.2-9.4-11.24-18.34-17.29-28.08Z"/>
  <path class="cls-9" d="m410.79,195.9c.08-.1.8-.85,1.4-1.69,4.44-6.25,9.1-12.36,13.14-18.85,1.36-2.19,1.12-5.37,1.61-8.11-2.73-.39-5.59-1.49-8.17-1.04-9.73,1.68-19.4,3.75-29.02,5.95-2.51.58-4.19.59-6.1-1.45-4-4.28-8.08-8.55-12.6-12.24-4.7-3.84-9.84-7.21-15.04-10.36-2.95-1.78-4.49-.61-4.2,2.8.25,2.97.68,5.97,1.44,8.85,2.06,7.87,4.33,15.69,6.59,23.81-.96.41-2.22.78-3.3,1.44-5.77,3.49-11.64,6.83-17.18,10.66-3.79,2.63-6.19,6.53-5.46,11.41,1.96,13.08,8.27,23.14,20.73,28.66,4.77,2.11,9.38,1.78,13.72-1.2,4.04-2.77,8.06-5.58,11.45-7.93,3.11,5.48,6.02,11.09,9.45,16.37,1.07,1.64,3.48,3.35,5.32,3.4,9.51.25,19.07-.13,27.77-4.66,8.8-4.58,10.5-9.13,5.75-17.73-5.2-9.4-11.24-18.34-17.29-28.08Z"/>
  <path class="cls-9" d="m203.34,281.88c.42,4.19.47,7.34,1.12,10.35.4,1.85,1.27,4.05,2.67,5.18,25.46,20.6,53.87,34.34,86.95,37.34,17.33,1.57,34.62,2.1,51.82-.81,29.36-4.97,55.77-16.59,78.56-35.99.83-.71,1.93-1.69,1.99-2.61.23-3.58.09-7.19.09-12.27-33.19,26.17-71.12,34.89-111.24,34.24-40.16-.66-78.03-10.42-111.96-35.43Z"/>
  <path class="cls-9" d="m239.86,91.2c49.71,16.91,99.84,16.21,150.21,3.08-50.31,11.66-100.38,11.8-150.21-3.08Z"/>
</svg>