<?xml version="1.0" encoding="UTF-8"?>
<svg id="_圖層_1" data-name="圖層 1" xmlns="http://www.w3.org/2000/svg" xmlns:xlink="http://www.w3.org/1999/xlink" viewBox="0 0 563.77 482.37">
  <defs>
    <style>
      .cls-1 {
        fill: #e30006;
      }

      .cls-2 {
        fill: url(#_未命名漸層_136-6);
      }

      .cls-3 {
        fill: url(#_未命名漸層_136-4);
      }

      .cls-4 {
        fill: url(#_未命名漸層_136-5);
      }

      .cls-5 {
        fill: url(#_未命名漸層_136-2);
      }

      .cls-6 {
        fill: url(#_未命名漸層_136-3);
      }

      .cls-7 {
        fill: url(#_未命名漸層_136-9);
      }

      .cls-8 {
        fill: url(#_未命名漸層_136-8);
      }

      .cls-9 {
        fill: url(#_未命名漸層_136-7);
      }

      .cls-10 {
        fill: url(#_未命名漸層_136);
      }
    </style>
    <linearGradient id="_未命名漸層_136" data-name="未命名漸層 136" x1="246.26" y1="244.86" x2="312.53" y2="244.86" gradientUnits="userSpaceOnUse">
      <stop offset=".01" stop-color="#e55133"/>
      <stop offset=".47" stop-color="#e55133"/>
      <stop offset="1" stop-color="#ffe0aa"/>
    </linearGradient>
    <linearGradient id="_未命名漸層_136-2" data-name="未命名漸層 136" x1="320.33" y1="244.77" x2="365.78" y2="244.77" xlink:href="#_未命名漸層_136"/>
    <linearGradient id="_未命名漸層_136-3" data-name="未命名漸層 136" x1="164.95" y1="244.78" x2="208.3" y2="244.78" xlink:href="#_未命名漸層_136"/>
    <linearGradient id="_未命名漸層_136-4" data-name="未命名漸層 136" x1="218.42" y1="244.8" x2="236.41" y2="244.8" xlink:href="#_未命名漸層_136"/>
    <linearGradient id="_未命名漸層_136-5" data-name="未命名漸層 136" x1="182.51" y1="151.37" x2="207.59" y2="151.37" xlink:href="#_未命名漸層_136"/>
    <linearGradient id="_未命名漸層_136-6" data-name="未命名漸層 136" x1="228.28" y1="151.47" x2="246.47" y2="151.47" xlink:href="#_未命名漸層_136"/>
    <linearGradient id="_未命名漸層_136-7" data-name="未命名漸層 136" x1="331.16" y1="151.11" x2="349.2" y2="151.11" xlink:href="#_未命名漸層_136"/>
    <linearGradient id="_未命名漸層_136-8" data-name="未命名漸層 136" x1="266.15" y1="151.11" x2="284.37" y2="151.11" xlink:href="#_未命名漸層_136"/>
    <linearGradient id="_未命名漸層_136-9" data-name="未命名漸層 136" x1="304.69" y1="151.24" x2="310.23" y2="151.24" xlink:href="#_未命名漸層_136"/>
  </defs>
  <path class="cls-10" d="m268.46,312.03c-7.4-44.78-14.78-89.43-22.21-134.35h18.21c4.89,33.53,9.77,67.02,14.66,100.51.19.01.38.02.57.03,4.88-33.45,9.76-66.9,14.66-100.55h18.17c-1.27,7.86-2.48,15.56-3.75,23.25-4.69,28.39-9.41,56.78-14.11,85.17-1.31,7.93-2.54,15.87-3.96,23.78-.15.82-1.34,2.04-2.08,2.06-6.63.16-13.26.09-20.16.09Z"/>
  <path class="cls-5" d="m320.33,311.81v-134.09h45.43v15.89h-26.78v40.91h23.61v16.22h-23.67v44.98h26.85v16.1h-45.45Z"/>
  <path class="cls-6" d="m183.05,295.75h25.26v16.1h-43.36v-134.14h18.1v118.04Z"/>
  <path class="cls-3" d="m236.41,311.92h-17.99v-134.25h17.99v134.25Z"/>
  <path class="cls-4" d="m195.33,157.31c1.3-8.23,2.6-16.46,3.91-24.79h8.35v37.26h-5.51v-23.76l-.6-.06c-1.23,7.89-2.45,15.78-3.67,23.62-5.14,1.25-5.58,1-6.46-3.88-1.15-6.35-2.24-12.71-3.78-19.04v23.2c-1.72.08-3.27.15-5.06.24v-37.54h8.14c1.4,8.26,2.79,16.52,4.19,24.78.16-.01.32-.02.49-.04Z"/>
  <path class="cls-2" d="m228.29,132.48h6.2c0,6.85,0,13.56,0,20.27,0,2.83,0,5.65,0,8.48,0,2.05.53,3.73,2.98,3.83,2.65.1,3.31-1.67,3.32-3.84.04-8.88.03-17.76.04-26.63,0-.63,0-1.27,0-2.07h5.62c0,4.14,0,8.25,0,12.35,0,5.87.09,11.74-.05,17.61-.11,4.55-3.1,7.59-7.47,7.95-5.85.48-9.33-1.69-10.18-6.68-.43-2.55-.42-5.18-.44-7.78-.05-7.69-.02-15.39-.02-23.47Z"/>
  <path class="cls-9" d="m343.58,156.1h5.62c-.2,2.96-.02,6.01-.7,8.85-.96,4.01-4.51,5.78-9.55,5.43-4.22-.29-7.38-2.64-7.54-6.69-.32-8.34-.33-16.71-.01-25.06.16-4.23,3.56-6.65,8.13-6.82,5.03-.18,8.43,2.04,9.24,6.36.39,2.08.26,4.26.37,6.56h-5.58c-.1-1.57-.2-3.06-.28-4.55-.11-1.99-1.34-3.31-3.11-2.84-1.2.32-2.81,1.94-2.9,3.08-.33,4.43-.13,8.9-.13,13.35,0,2.72-.3,5.48.14,8.12.2,1.18,1.85,2.91,2.89,2.94,1.02.03,2.61-1.61,3.01-2.82.57-1.77.3-3.82.4-5.91Z"/>
  <path class="cls-8" d="m266.15,158.78h5.6c.1,1.16-.14,2.43.37,3.21.78,1.2,1.95,2.7,3.17,2.92,2.1.39,3.37-1.49,2.96-3.31-.5-2.22-1.55-4.46-2.91-6.3-1.46-1.98-3.97-3.24-5.25-5.3-1.59-2.57-3.14-5.56-3.39-8.48-.56-6.52,3-9.89,9.25-9.71,5.64.16,8.55,3.74,8.2,10.37h-5.18c-.18-.18-.31-.25-.33-.33-.26-1.75.25-4-2.26-4.46-.93-.17-2.78.3-2.86.73-.37,1.9-.96,4.3-.14,5.77,1.39,2.48,3.69,4.5,5.8,6.51,3.4,3.24,5.51,6.89,5.15,11.79-.35,4.86-3.22,7.94-7.98,8.19-5.81.3-9.06-2.05-9.81-7.19-.2-1.36-.24-2.74-.38-4.43Z"/>
  <path class="cls-7" d="m310.23,169.93h-5.54v-37.37h5.54v37.37Z"/>
  <path class="cls-1" d="m563.77,385.24c-.47.72-1.03,1.39-1.38,2.16-1.38,2.98-3.17,3.15-5.34.51-1.11-1.36-2.3-2.64-3.69-4.22-1.66,2.25-2.7,4.19-4.26,5.54-.74.64-2.86.66-3.63.05-.77-.61-1.27-2.97-.77-3.5,1.76-1.86,2.79-5.31,6.63-3.96.39.14,1.45-.99,1.85-1.72.32-.6.06-1.49.15-2.25.24-2.03.23-4.95,2.71-4.81,1.95.11,4.36,1.88,5.5,3.61,1.34,2.03,1.53,4.82,2.21,7.27v1.31Z"/>
  <path class="cls-1" d="m90.76,156.08c-2.03,1.52-4.06,3.04-6.07,4.58-1.43,1.09-3.08,2.02-4.21,3.37-2.32,2.75-5.03,4.59-8.68,4.09-1.08-.15-2.61-1.42-2.86-2.43-.77-3.25,3.35-8.54,6.68-9.03.47-1.53.94-3.07,1.32-4.31-1.97-.8-3.98-1.42-5.75-2.45-.56-.33-.71-1.77-.66-2.68.19-3.63,3.96-5.84,10.11-5.87v-31.21c4.74,1.18,9.26,1.88,13.46,3.46,4.16,1.57,7.48.52,10.89-1.62.78-.49,1.8-.61,3.58-1.17-.77,1.42-1.19,1.92-1.31,2.47-.18.89-.17,1.82-.23,2.73.96-.19,1.92-.4,2.89-.56.88-.15,1.77-.26,2.66-.38.06.38.12.75.17,1.13-.77.23-1.53.45-2.1.62.19,1.41.5,2.72.51,4.03.05,6.08-.03,12.16.07,18.24.01.82.82,1.63,1.26,2.44.36-.92,1.15-1.91,1.01-2.74-1.06-6.22.91-8.89,7.18-9.77,3.33-.47,6.61-1.26,10.37-2-.39,1.12-.93,2.49-1.34,3.9-.26.87-.72,2.38-.4,2.59.88.59,2.16.97,3.19.82.53-.08,1.44-1.75,1.21-2.21-1.43-2.85.61-4.05,2.36-5.23,1.67-1.13,1.96-2.14.76-3.33-2.07.28-3.86.52-6.2.84.57-1.8.82-2.82,1.2-3.79,1.18-2.96,2.87-3.53,5.89-2.65,1.86.54,3.9.44,5.86.63.06-.28.12-.56.18-.84-1.38-.97-2.84-1.85-4.14-2.93-5.61-4.65-7.34-10.91-5.11-17.87,1.71-5.34,4.87-9.75,8.96-13.4,3.8-3.4,5.38-7.25,4.85-12.38-.43-4.18-.06-8.44-.03-12.66,0-.43.04-.87.13-1.3.75-3.55,3.29-6.49,5.8-6.17,3.22.42,4.74,2.96,5.39,5.82,2.29,9.96,1.36,19.24-6.21,26.97-.38.38-.7.82-1.04,1.24-.06.08-.06.2.59.37-.11,2.07-.21,4.13-.33,6.41,3.94-1.95,8.13-2.66,12.6-1.21.75.24,1.99-.86,2.93-1.46,2.04-1.29,3.46-1.48,5.63.51,2.35,2.16,4.36,4.27,5.99,7.03.73,1.23,3.1,1.5,4.66,2.16,1.65-1.9,2.06-3.37,1.01-5.55-1.33-2.75,2.53-7.1,5.56-6.51,2,.39,2.68,1.62,1.19,3.21-1.52,1.63-3.32,3-4.75,4.82,6.7.82,12.2-1.99,17.91-5.04-1.25-.25-2.5-.59-3.76-.74-3.23-.39-5.55-1.93-6.35-5.17-.74-3,.87-6.43,3.59-8.11,3.44-2.12,7.03-3.48,11.38-2v-3.53c-.4,0-.73-.06-1.03,0-5.56,1.28-7.27-.08-6.96-5.82.04-.81,1.04-1.54,1.37-2.39.35-.9.89-2.27.5-2.77-.62-.79-1.96-1.41-2.97-1.37-.66.02-1.31,1.3-1.9,2.07-.78,1.03-1.39,2.2-2.26,3.13-.96,1.02-2.19,1.77-3.2,2.75-2.68,2.59-3.36,2.55-4.6-1.1-1.05-3.1-2.61-5.22-5.91-6.3-2.63-.86-2.67-2.78-.09-4.08,2.25-1.13,2.99-2.76,3.45-5.04.84-4.12,2.55-5.42,6.56-6.11,1.85-.32,3.64-1.07,5.44-1.68,1.85-.63,3.35-.69,4.15,1.59,1.19,3.36,2.17,6.76,5.8,8.72.73.39.04,3.36.06,5.14.02,2.3-1.57,4.83,1.8,7.64V24.22c15.17-3.39,30.17-6.74,45.6-10.18v3.83c0,16.11-.11,32.22.07,48.33.06,4.96-.95,9.05-5.26,11.38.58,2.07,1.08,3.88,1.52,5.44,1.81,1.24,3.57,2.44,5.56,3.81.03-.04.31-.57.74-.96.92-.85,2.04-2.39,2.85-2.26,1.07.18,2.07,1.58,2.83,2.65,1.1,1.55-1.01,5.43,3,4.73,1.97-.34,3.96-1.79,5.47-3.23,1.32-1.25,1.89-1.08,2.72.19.3.03.59.08.88.12l-.06-.11c-.05.24-.1.48-.14.71.18.24.36.49.53.73,0,0-.09-.05-.09-.05.47,0,.94,0,1.41-.01,0,0-.08.07-.08.07,2.31,2.01,4.59,4.06,6.95,6.02,1.76,1.47,3.48.91,4.88-.55,1.69-1.77,3.01-3.96,4.9-5.45,1.27-1,3.23-1.22,4.92-1.55.86-.17,1.82.17,3.37.36-.21,1.78-.44,3.69-.58,4.89,2.53.25,5.48.67,8.43.81,2.33.11,3.65,1.34,3.32,3.4-.14.89-2.04,1.5-3.15,2.23-.27.17-.57.28-1.25.61,1.08.58,1.9,1.02,2.73,1.47-19.48-4.69-39.19-6.37-59.39-4.91,0-.86-.06-1.37.02-1.86.08-.51.3-1,.48-1.54-2.41-1.78-4.2-1.68-4.91,1.34-.53,2.23-1.99,2.76-3.97,3.03-27.1,3.65-51.88,13.23-74.14,29.19-2.26,1.62-4.49,3.3-6.68,4.92-.62-1.73-1.16-3.23-1.7-4.73-.97,1.25-2,2.47-2.9,3.77-.73,1.06-1.39,2.18-1.94,3.35-.72,1.53-1.05,4.28-1.97,4.47-2.3.47-4.93.14-7.25-.51-3.39-.95-6.55-2.29-9.68.64-1.9,1.78-1.88,4.06.54,5.18,2.22,1.02,4.63,1.63,6.98,2.43,1.57-5.61,2.07-5.98,6.27-4.55-1.36,1.42-2.58,2.73-3.83,4.02-15.44,15.88-27.03,34.21-34.78,54.95-.59,1.58-.88,3.37-.9,5.06-.09,8.27-.11,16.55-.02,24.82.05,4.85-1.72,8.89-5.71,11.43-2.73,1.74-3.54,3.76-3.27,6.68.08.86-.08,1.73-.14,2.67-2.28.84-4.25,1.13-6.63-.35-3.05-1.88-3.82,1.64-6.19,3.97-.29-2.61-.65-4.48-.66-6.36,0-2.06-.16-3.73-2.36-4.8-3.7-1.79-3.39-5.43-3.49-8.96-.54.15-1.13.15-1.26.39-.94,1.81-1.39,4.07-2.75,5.43-2.14,2.13-1.15,3.69-.16,5.71.4.81-.29,2.09-.15,3.11.16,1.28.39,3.43,1.06,3.63,3.07.93,5.82,2.76,8.63,4.01,4.47,1.98,9.24-1.36,13.11,1.94.15.13.56-.05.47-.04,1.25,10.42,2.48,20.73,3.74,31.18-2.11-1.77-4.25-3.56-6.39-5.36-.4.17-.79.34-1.19.52.42,3.01.84,6.03,1.26,9.04.46-.02.92-.03,1.38-.05.16-1.45.31-2.9.47-4.35.22-.2.44-.4.66-.59.75,1.04,1.5,2.07,2.48,3.43.4-.08,1.27-.27,2.27-.48,1.07,3.7,2.16,7.31,3.12,10.95.09.35-.58.89-.99,1.48-1.08-1.56-2-2.89-2.92-4.22-.37-.01-.75-.02-1.12-.04-1.17,2.71-2.34,5.43-3.84,8.91,7.77-1.55,14.42-2.88,21.53-4.3,0,5.77.44,11.33-.11,16.79-.77,7.74,1.41,14.29,6.21,20.2,6.24,7.67,12.38,15.42,18.75,22.98.82.97,2.81,1.5,4.16,1.35,2.87-.32,5.67-1.23,8.77-1.96,0-5.83,0-11.58,0-17.33,0-7.4-.04-14.8.01-22.21.05-7.23,3.15-10.39,10.28-10.52,2.5-.05,5.02-.08,7.5.14,4.26.39,7.18,3.07,7.58,7.23.3,3.22.06,6.48.06,9.92h-8.14c0-1.95.07-3.85-.02-5.74-.15-3.3-1.34-4.25-4.81-4.24-2.93,0-4.05,1.52-4.05,4.29.03,12.07.01,24.13.01,36.57,4.71-1,9.13-1.94,13.12-2.78,1.39.9,2.51,1.62,3.94,2.55.13,3.68.57,7.75-2.39,11.34-.7.85-.58,2.5-.6,3.78-.07,4.24-.2,8.5.08,12.73.09,1.32,1.08,3.13,2.2,3.76,17.61,9.88,36.49,16.15,56.44,19.16,4.5.68,9.03,1.13,13.33,1.66-.56,1.14-1.14,2.33-1.73,3.53-.13.27-.27.53-.4.8-1.68,1.67-3.39,2.87-6.05,1.89-.88-.32-2.3.36-3.26.93-.58.34-1.15,1.46-1,2.05.16.6,1.13,1.19,1.85,1.4,1.27.37,2.62.45,4.75.77-1.5,1.63-2.27,2.83-3.35,3.58-3.22,2.26-3.8,5.54-3.34,8.96.41,3.05-.05,5.37-2.9,6.85-2.82,1.47-5.53,1.98-7.83-.96-.17-.22-.56-.29-.86-.4-.09-.03-.21.03-.64.12,2.23,2.55.87,3.71-1.63,4.43-1.55.45-2.61-.11-2.2-1.65.83-3.16-1.4-3.59-3.41-4.42-2.67-1.11-5.23-2.5-7.97-3.39-1.25-.4-2.81.06-4.18.35-.12.03.24,1.7.12,2.57-.16,1.21-.47,3.36-.88,3.4-1.43.13-2.92-.46-4.39-.79.43-1.13.8-2.29,1.3-3.39.36-.79.9-1.5,1.36-2.24-.96,0-1.97-.2-2.87.02-1.72.42-3.92,2.03-4.97,1.45-2.83-1.59-5.24-3.99-7.63-6.27-.55-.53-.46-1.83-.49-2.79-.06-2.38-.02-4.76-.02-7.63-3.36.19-6.21.36-9.47.54,0,4.91.12,9.44-.03,13.96-.24,7.52-5.41,13.16-13.17,14.48-1.38.24-2.82.31-4.22.25-4.01-.16-7.56-1.35-9.44-5.27-1.82-3.8-.52-7.18,1.81-10.32.18-.25.3-.54.63-1.16-2.14-.15-4.15.02-5.93-.54-1.18-.37-2.79-1.74-2.83-2.71-.04-1.03,1.49-2.93,2.47-3.02,2.94-.27,4.73-1.77,6.26-4.02.54-.79,1.29-1.69,2.13-1.97,4.34-1.45,4.67-5.48,4.16-8.54-.4-2.42-3.23-4.6-5.33-6.49-.64-.58-2.52-.08-3.69.32-1.56.52-2.99,1.43-5.27,2.57,1.35-5.97-3.64-6.91-5.23-10.66-1.21,4.28-3.48,6.69-6.75,8.46-2.96,1.61-5.76.95-8.45-.17-1.97-.82-1.29-4.96,1.03-6.2,3.06-1.63,4.33-4.01,3.97-7.96-3.78,1.72-8.3.37-10.93,4.36-.4.6-.94,1.29-.95,1.94-.06,11.18-.04,22.36.71,34.16,2.34-2.09,4.68-4.17,7.37-6.57v-3.96c3.15-1.17,5.88-2.19,9.43-3.51-.5,2.56-.61,4.6-1.32,6.41-.88,2.25-1.22,4.13,1.28,5.57-2.29,4.5-3.61.3-4.91-.3-2.09.68-3.93,1.17-5.67,1.91-.89.38-2.24,1.19-2.28,1.85-.18,3.56-2.17,2.78-4.66,1.69,0,4.76.12,9.17-.06,13.56-.08,1.86-.44,3.89-1.29,5.52-3.35,6.37-12.04,10.07-19,8.34-6.67-1.65-9.47-8.27-5.62-14,4.81-7.14,11.82-9.02,20.24-7.48v-26.94c-2.08-.24-5.27,1.11-5.14-2.5.12-3.24,2.89-2.36,5-1.98v-31.62c-.96.06-1.56.16-2.15.11-.77-.07-1.53-.26-2.3-.4.21-.78.23-1.68.67-2.3,1.03-1.48,1.32-2.85-.4-3.87-1.66-.99-2.46-.25-3.85,1.21-1.52,1.59-4.46,1.81-6.78,2.65-.87.31-1.72.67-2.79,1.09-2.24-6.91,2.52-10.68,6.86-14.63-.29-.26-.58-.52-.87-.78-2.63,1.64-5.53,2.98-7.83,5-2.28,2.01-4.63,1.87-6.97,1.1-2.33-.78-2.03-3.03-2.25-5.16-.34-3.38,1.05-4.65,4.06-5.24,1.14-.22,2.13-1.22,3.19-1.87,0,0-.09-.1-.09-.1.52.01,1.05.03,1.57.04.13.27.25.54.38.82.3-.27.6-.54.9-.81.6-.38,1.2-.75,1.8-1.13,0,0-.1.18-.1.18-.13-1.31.22-3.36-.48-3.81-2.63-1.72-1.77-4.16-1.95-6.42-.01-.18.27-.37.28-.57.12-1.86.98-4.72.15-5.35-1.44-1.09-3.92-.78-6.62-1.15-.18-3.13-.4-7.04-.62-10.94-.33-.03-.66-.05-.99-.08,1.16-.87,2.33-1.75,3.49-2.62-.09-.21-.17-.42-.26-.62-1.26.31-2.52.63-3.95.98,0,9.43-.09,18.65.03,27.87.1,7.62-5.23,11.81-12.47,9.61-.83-.25-1.74-.27-2.32-.36-.66-1.59-1.36-3.27-2.11-5.06,3.32-2.97,6.08-8.79,13.2-6.27v-33.13c-8.16,6.2-17.38,8.79-27.18,10.77.72,4.1,1.48,8.21,2.15,12.33.93,5.71,1.6,11.36-.31,17.09-2.14,6.4-8.24,11.4-15.25,11.98-7.66.63-14.91-3.22-17.91-9.51-2.33-4.9-.05-10.68,5.02-12.72,5.35-2.15,10.75.3,12.64,5.72,1.74,5-.96,10.26-6.07,11.8-.82.25-1.67.41-2.59.63,4.26,3.34,11.53,2.32,15.74-2.14,3.62-3.84,5.5-8.59,5.14-13.69-.5-7.1-1.81-14.14-2.63-20.07-8.72-1.44-16.7-2.01-24.23-4.16-14.03-4-24.58-12.57-29.32-26.84-4.06-12.23-1.19-23.8,4.45-34.94,5.56-10.98,13.98-19.6,22.77-27.93.16-.15.33-.28.49-.43,8.07-7.72,7.71-7.68,6.61-18.94-1.33-13.62-2.78-27.33.4-40.9.75-3.21,2.1-6.52,4.03-9.16,4.57-6.23,12.77-8.99,19.08.08,3.98,5.72,5.4,12.29,6.36,18.97.57,3.95.65,7.97,1,12.67,1.05-.76,2.41-1.28,2.8-2.2.25-.58-1.09-1.72-1.47-2.71-.34-.9-.82-2.46-.42-2.83,2.34-2.16,4.68-4.24,8.41-3.98,3.54.25,6.81-.98,8.99-3.94,2.36.37,4.68.74,7.28,1.15,1.77-4.49,3.49-9.45,5.72-14.17.83-1.77,2.87-2.96,4.32-4.44.76-.78,1.44-1.65,2.16-2.47-.82-.68-1.54-1.59-2.47-2-2.88-1.26-5.84-2.33-8.76-3.47-.39-.78-.78-1.57-1.17-2.36-.2-.48-.41-.95-.62-1.43,2.2-.67,4.19-.48,5.82,1.69.41-1.96,2.85-4.02-.77-4.96-1.59-.41-3.3-.37-5.14-.55-.21,1.03-.44,2.14-.67,3.25-.11.26-.23.51-.34.77Zm-13.65,95.27c0-.24,0-.49-.01-.73-.54-.19-1.08-.38-1.62-.57,0,0,.09.06.09.06-.25-1.43-.79-2.87-.7-4.28.16-2.44.71-4.85,1.07-7.13-2.5-.68-4.72-1.26-6.92-1.89-2.35-.67-4.92-1.01-6.98-2.2-2.13-1.23-3.27-3.46-1.29-5.99-5.41,6.59-10.7,12.87-15.95,19.17-.45.54-.97,1.34-.89,1.95.64,4.68,1.42,9.34,2.14,13.95,4.94-1.84,9.39-3.5,14.61-5.45.27-2.85.5-6.32,1.02-9.76.1-.64,1.47-1.68,2-1.55,1.15.28,2.11,1.25,3.19,1.87,1.51.87,3.06,1.69,4.59,2.53.16.21.31.42.47.63.32.23.64.46.96.68h-.09c.36-.04.72-.06,1.08-.08.19.22.39.44.58.66.35.26.71.52,1.06.78,0,0-.1-.04-.1-.04.35-.35.71-.71,1.06-1.06l.04.1c-.05-.35-.09-.69-.14-1.04.24-.21.48-.42.71-.63ZM226.92,84.24c-1.35,1.8-2.7,3.6-4.22,5.62,3.66.56,4.91-1.56,3.98-5.62.64-1.1,1.16-2.3,1.97-3.25.62-.74,1.61-1.17,2.43-1.74.28.88.58,1.76.83,2.64.09.31.06.65.08.98,1.77-3.09,6.44-4.64,4.63-9.31-.23-.6.01-1.58.37-2.18,1.34-2.19,2.83-4.3,4.3-6.49-.74-.92-1.77-2.2-3.12-3.89-.29.47-.52.98-.86,1.4-3.05,3.87-4.65,3.81-8.74,1.19-1.8-1.15-4.2-2.55-6.78-1.09-1.93,1.09-2.73.3-2.83-1.81-.07-1.5-.34-3.03-.84-4.43-.2-.57-1.33-1.2-1.94-1.11-.63.09-1.63,1-1.65,1.57-.19,6.14-.27,12.28-.2,18.42,0,.79.9,2.04,1.64,2.28,2.87.96,3.98,3.11,4.64,5.75.24.97.57,1.91.71,2.39,2.21-.52,3.91-.92,5.6-1.32ZM40.63,251.65c-10.04,7.9-19.22,15.9-24.93,27-6.49,12.63-4.45,25.99,6.44,35.37,5.96,5.14,12.87,8.49,20.52,10.2,3.5.78,7.12,1.02,11.09,1.55-3.03-16.43-5.93-32.1-8.82-47.77-.31-.07-.61-.14-.92-.21-1.62,2.52-3.54,4.91-4.81,7.6-3.59,7.59-3.19,15.65-2.32,23.78-3.9-6.28-6.21-12.93-5.39-20.45.89-8.23,4.37-15.16,10.3-20.91.55-.53,1.14-1.47,1.05-2.13-.61-4.5-1.4-8.97-2.22-14.03Zm25.27,18.15c-5.28-1.62-10.75.7-15.98,3.76-.79.46-1.53,2.07-1.36,2.98,1.58,8.76,3.28,17.51,5.11,26.23,1.59,7.59,3.4,15.14,5.15,22.84,11.78-1.51,22.4-4.84,29.51-14.17-.38-2.76-.69-4.95-.99-7.14-4.58-.62-8.6-4.56-13.76-2.08-.52-2.99-2.71-6.2,1.44-7.71,3.05-1.11,3.03-3.47,2.83-5.64-.11-1.23-1.71-2.32-3.12-4.07,0-.8.32-2.6-.12-4.18-.25-.89-1.68-1.77-2.73-2.04-1.09-.27-2.36.2-4.46.46,1.26-2.19,1.97-3.43,3.02-5.26h-5.91c-.26-.26-.51-.52-.77-.79.78-1.16,1.57-2.32,2.15-3.19ZM214.26,53.41c3.28-.08,3.96-2.19,4.4-4.13,1.12-4.93,4.53-7.39,9.06-8.17,3.13-.55,6.52-.61,9.62,0,1.9.37,4.15,2.06,5.06,3.79,2.26,4.25,2.75,8.81.31,13.4-1.38,2.6-.01,6.13,2.05,6.01,2.41-.13,4.82-.38,7.3-.58V26.15c-12.22,2.81-24.26,5.56-36.28,8.41-.61.14-1.46,1.09-1.47,1.68-.11,5.63-.07,11.27-.07,17.18Zm-105.91,70.84c-8.31-2.05-16.44-4.06-24.76-6.12v27.41c1.04-.19,1.84-.17,2.47-.48,2.94-1.45,5.67-2.04,8.27.8.4.44,2.29.34,2.64-.14,1.26-1.7,2.38-3.6,3.07-5.59.26-.76-.77-1.97-1.21-2.99,3.2-2.28,6.23-.08,9.53.86v-13.75Zm-66.26,98.61c3.06-4.99,6.23-9.91,9.15-14.98,4.28-7.44,6.84-15.43,6.85-24.1,0-4.85-1.53-7.71-4.31-8.24-2.73-.52-5.43,1.63-7.28,5.88-5.81,13.26-5.29,27.28-4.41,41.44Zm105.64-134.39c-2.44,2.86-5.29,5.49-7.25,8.67-2.9,4.71-2.79,9.41.56,13.62.56.7,1.81,1.38,2.6,1.24,1.04-.18,1.94-1.17,2.9-1.82-.6-.79-1.19-1.58-1.79-2.38-.25-.34-.5-.68-.44-.6.97-2.91,1.77-5.45,2.68-7.94.44-1.21.85-2.63,1.73-3.45,2.82-2.59,2.96-4.82-1.01-7.34Zm-39.21,135.72v-9.38c-2.63.4-4.96,1.03-7.28,1.03-3.95,0-7.78,2.77-11.62.45-2.74,2.94-3.17,5.88-1.11,8.28,1.76-1.32,3.26-2.9,5.09-3.59.71-.27,2.18,1.48,3.41,2.39,3.47.25,7.42.53,11.51.82Zm41.06-149.48c.43.1.87.19,1.3.29,3.12-4.41,6.19-8.91,6.36-14.55.05-1.54-1.18-3.13-1.82-4.69-1.13,1.13-2.98,2.11-3.27,3.43-1.13,5.12-1.76,10.34-2.58,15.52Zm28.76,302.32c-4.5,1.06-8.67,2.05-13.12,3.1,4.54,5.03,8.8.66,13.12.67v-3.76Zm-42.19,9.88c-3.27.76-6.36,1.67-9.52,2.16-2.4.37-2.82,1.33-1.83,3.46,3.18-.59,6.23-1.21,9.31-1.7,2.17-.34,3.05-1.32,2.03-3.92ZM220.34,95.83c-.9-.75-1.62-1.35-2.34-1.95-1.2,1.56-2.5,3.06-3.48,4.75-.16.28,1.12,1.41,1.77,2.12.05.05.45-.1.56-.25,1.08-1.42,2.13-2.85,3.48-4.68Zm-63.81.49h8.61c-3.59-2.56-5.98-2.52-8.61,0Zm-22.88,46.18l1.63-.88c-.69-1.35-1.38-2.7-2.07-4.04-.56.5-1.68,1.23-1.59,1.46.51,1.22,1.32,2.32,2.03,3.46Zm-53.05,119.66c.26-.21.51-.42.77-.63-.46-.86-.74-2.23-1.42-2.46-1.17-.41-2.58-.11-3.89-.11-.02.3-.05.6-.07.9,1.54.77,3.07,1.54,4.61,2.31Zm2.32,15.78v5.33l.54.12c.66-1.16,1.33-2.33,2.08-3.65-.77-.53-1.44-.99-2.62-1.8Zm34.64,42.84c1.03,2.01,1.81,3.53,2.59,5.06.16-.08.33-.16.49-.23v-5.31c-.97.15-1.77.28-3.08.48Zm-19.65.63c-.06-.24-.12-.48-.18-.71-2.47.54-4.93,1.08-7.4,1.61l.26,1.08c2.44-.66,4.88-1.32,7.32-1.98Z"/>
  <path class="cls-1" d="m467.59,331c.74-.61,1.49-1.2,2.2-1.84,1.06-.96,1.86-1.63,3.47-.44,1.8,1.33,2.98.51,2.87-1.9-.25-5.53-.71-11.08-.51-16.6.16-4.3.92-8.64,1.94-12.83.87-3.58,3.08-6.41,6.83-7.74,3.21-1.14,5.63-.22,7.78,2.29,3.81,4.42,4.86,9.82,5.67,15.32.28,1.92.44,3.86.67,5.97,4.12.81,3.86-3.82,6.26-5.03.2-.1-.81-2.6-1.31-4.15h3.03l-.39.59c1.22.79,2.43,1.58,3.65,2.36,0,0-.01-.05-.01-.05-.06.99.24,2.24-.25,2.91-1.51,2.09-3.33,3.96-5.03,5.92.27.35.53.69.8,1.04,1.1-.7,2.3-1.29,3.29-2.13,6.77-5.73,14.51-7.98,23.28-6.66.96.14,1.91.38,3.18.64.06-1.11.16-2.14.16-3.17,0-26.88-.01-53.77.04-80.65,0-2.19-.31-3.4-2.88-4.01-24.32-5.74-48.59-11.66-72.88-17.52-.81-.19-1.64-.27-2.58-.42v27.19c.7-.94,1.49-2.43,2.71-3.38.41-.32,1.91.75,2.91,1.19l-.39.93c-.92-.06-1.84-.13-3.18-.22.24,1.43.44,2.63.69,4.09-2.91-.24-3.05,1.62-2.92,3.74.27,4.44.68,8.88.69,13.32.01,5.19-.45,10.38-.48,15.57-.01,2.28.55,4.56.86,6.92-.3,1.52-.89,3.24-.93,4.97-.09,3.58.2,7.18.19,10.76-.01,4.87-2.24,8.84-5.69,12.02-7.41,6.83-15.95,9.5-25.97,6.17-.66.96-1.26,1.82-1.46,2.11,2.22,2.6,4.18,4.9,6.15,7.21-.16.4-.33.79-.49,1.19-.79-.2-1.57-.43-2.37-.6-.93-.2-1.88-.35-2.81-.52-.05.9-.48,2.06-.08,2.65,1.25,1.84,1.2,3.47-.23,5.03-.44.48-1.56,1.04-1.87.82-3.01-2.03-5.54-.74-8.56,1.51,3.09-7.18,5.89-13.68,8.78-20.4-.04-.07-.19-.49-.46-.81-6.71-7.81-6.61-15.89,1.55-22.16,4.58-3.52,5.34-7.57,5.75-12.47,2.05-24.7-1.47-48.57-10.45-71.65-.15-.39-.22-.8-.4-1.5,2.38.29,4.65-.05,5.21,3.18.22,1.28,1.24,2.58,2.24,3.49.55.5,1.84.38,2.74.24.8-.12,1.54-.66,2.3-1.02.2.46.4.93.6,1.39-.86.33-1.71.66-2.57,1.01-.1.04-.17.14-.59.5.23.77.5,1.72.78,2.66,1.28-.31,2.3-.55,3.31-.8-.07,1.2-.28,2.42-.16,3.6.13,1.25.57,2.46.92,3.87-.18.75-.89,1.98-.67,3,.96,4.42,1.06,4.39,7.64,5.1-.36,1.01-.69,1.97-1.19,3.39h9.75v-47.69c2.84.09,5.67,2.41,7.98-.73.12-.17,2.26.58,2.31,1.03.28,2.54,2.38,2.69,3.99,3.11,21.45,5.56,42.93,11.01,64.39,16.51,5.26,1.35,10.5,2.75,15.56,4.09,0,8.02,0,15.94,0,23.86.02,30.04-.08,60.07.1,90.11.1,16.04-15.48,27.46-30.85,22.25-5.83-1.98-8.96-6.47-8.78-12.65.03-1.08.16-2.15.27-3.6h-5.73c.26,12-7.12,20.26-14.69,28.42.15.34.29.69.44,1.03,2.63-.87,5.25-1.74,7.91-2.63.58,2.85-2.49,6.63-6.55,8.31,2.44,3.63,7.89,2.2,13.12-3.98-.18,1.96-.3,3.22-.45,4.81,7.38,0,13.37,3.03,18.14,8.63,10.27,12.08,7.03,30.93-6.86,38.53-3.58,1.96-7.63,3.05-11.47,4.51-1.38.53-2.79.98-4.07,1.42.75,4.85,1.56,9.35,2.12,13.87,1.12,8.98-6.07,16.64-14.73,15.79-4.18-.41-7.34-2.62-9.7-5.95-2.42-3.41-1.38-7.74,2.21-9.84,3.5-2.05,7.86-.73,9.74,2.95,1.76,3.46.23,7.56-3.47,9.23-.68.31-1.4.52-2.13.79,6.98,3.85,13.83-2.11,14.34-8.75.39-5.08-.43-10.25-.72-15.54-4.33,2.39-7.98,4.48-11.7,6.4-.69.36-1.72.06-2.6.07.26-.74.53-1.47.76-2.22.17-.56.57-1.31.35-1.65-.27-.42-1.1-.75-1.62-.67-.39.06-.7.8-1.02,1.26-.29.42-.47.95-.84,1.27-1.01.87-2.3,1.48-3.13,2.49-3.26,3.96-7.47,3.69-9.92-.81-1.04-1.9-1.91-3.9-2.76-5.89-1.78-4.19.12-7.99,1.07-10.7-3.69-6.13-6.94-11.53-9.76-16.22-6.41,3.58-13.27,7.42-19.55,10.94-2.54-.19-4.57-.34-6.99-.52v38.1h-5.02v-29.15c-1.58,1.1-2.11,1.69-2.75,1.87-1.17.32-2.6.88-3.58.49-3.46-1.38-5.05-1.09-7.72,1.77-.76.81-1.88,1.28-2.83,1.9,0,0-.03-.02-.03-.02-.77.07-1.54.13-2.31.2,0,0,0,.09,0,.09,0-.68,0-1.37,0-2.05.26-.71.51-1.42.77-2.13.08-1.13.16-2.26.24-3.39-.36,0-.72-.02-1.08-.03l.1.08c-.36-.24-.72-.48-1.08-.72-.35,1.05-.7,2.11-1.04,3.16-.41.27-.82.54-1.24.81.01.33.03.65.04.98-1.11.95-2.2,1.92-3.32,2.86-4.31,3.6-8.62,7.21-12.96,10.77-.45.37-1.12.46-1.89.41,6.42-5.04,11.96-10.74,15.41-18.23-.81,1.06-1.62,2.11-2.57,3.35-.4-.49-.7-.85-1-1.22-3.2,2.9-5.4-2.96-8.56-1.04-.13.08-1.15-1.05-1.56-1.73-1.24-2.06-4.32-3.32-5.69-2.7-1.86-1.54-3.36-3.76-5.2-4.08-3.15-.56-1.81,3.34-3.35,4.75-.62.57-.5,1.88-.97,2.71-.39.69-1.15,1.67-1.74,1.67-3.23,0-6.46-.27-10.37-.48,0,8.75.02,17.51,0,26.28-.01,4.44-3.06,7.84-7.48,7.63-1.86-.09-4.61-1.32-5.2-2.76-.6-1.45.37-4.55,1.7-5.59,2.12-1.66,5.11-2.22,8.12-3.4v-19.6c-8.61,1.83-16.85,3.59-25.29,5.38,0,8.32.01,16.47,0,24.61,0,5.06-4.1,8.38-9.14,7.46-3.64-.67-5.01-3.76-2.91-6.79,2.24-3.23,5.56-3.88,9.45-3.34v-33.4c10.04-1.62,19.54-4.47,27.91-10.37.48,1.41.86,2.5,1.24,3.6.28.03.57.05.85.08.48-.99,1.34-1.97,1.38-2.98.09-2.7,1.85-3.87,3.82-5.07,1.86-1.12,3.59-2.45,5.42-3.63,2.21-1.43,3.75-2.91,4.18-5.97.78-5.46,6.75-9.61,13.45-10.64,1.56-.24,3.29-1.06,4.4-2.16,8.71-8.59,16.1-18.25,22.67-28.56.39-.61.87-1.16,1.82-1.45-.45.99-.9,1.97-1.46,3.21,2.46,1.8,7.6,2.12,4.52,7.41,4.07,1.26,4.39-2.55,6.98-4.3-1.32-.1-1.95-.15-2.6-.2-.06-.17-.25-.45-.19-.52,3.46-3.85,5.09-9.25,9.96-11.89,2.28-1.24,4.65-2.31,6.95-3.52,1.62-.85,3.17-1.81,4.77-2.7,1.44-.81,2.82-2.04,4.35-2.28,2.79-.44,3.79-1.64,3.53-4.44-.08-.9.78-2.18,1.58-2.77.41-.3,2.02.29,2.47.92,2.92,4.11-.58,8.04-.56,12.03h6.32c1.15-2.27,3.46-3.11,6.65-2.23.92.25,2.13-.81,3.24-.91,1.35-.13,2.73.12,4.1.21-.21,1.13-.39,2.27-.62,3.39-.24,1.18-.52,2.35-.78,3.52-.73.43-1.42.92-2.19,1.27-3.41,1.56-5.16,6.64-10.37,4.39-.07.32-.15.63-.22.95.9.74,1.79,1.48,3.38,2.78-1.32,1.79-2.84,3.75-4.24,5.8-.42.61-.5,1.44-.74,2.17.58.14,1.41.6,1.71.37,2.53-1.98,5.56-3.67,7.27-6.24,2.32-3.49,3.6-7.66,5.32-11.54Zm21.78,59.62c2.29-1.81,4.57-3.08,6.58-.27,1.43,2,.15,4.52-3.1,6.18,1.59,1.6,3.21,1.86,5.27,1.43.99-.21,2.84.16,3.09.77.4.97.17,2.63-.47,3.51-1.1,1.52-2.73,2.66-4.19,4.02,10.23-.3,19.35-7.83,20.61-16.95,1.22-8.79-5.2-18.84-12.87-21.33-2.01,1.23-3.74,3.07-4.75,2.73-1.83-.61-3.24-2.51-5.54-4.49-1.85.7-4.59,1.64-7.21,2.82-.7.31-1.59,1.49-1.48,2.09.49,2.48.1,5.52,3.67,6.42,1.07.27,1.9,1.51,2.9,2.35-4.3,3.54-4.52,4.48-2.54,10.72Zm.75-76.85c.36.24.72.49,1.08.73.4-4.04,1.12-8.09,1.03-12.13-.04-1.52-1.68-3.57-3.13-4.28-.83-.41-3.05,1.09-4.08,2.23-1.11,1.22-2.02,2.98-2.25,4.61-1.03,7.36-1.83,14.75-2.62,22.14-.14,1.36.19,2.77.33,4.57,1.32-1.55,2.39-2.43,2.98-3.56,1.58-3.03,4.9-5.74,1.45-9.74-1.61-1.86.14-3.57,1.74-4.47.89-.5,2.3-.09,3.47-.09Zm-25.65,67.73c-3.46-.8-5.95.81-5.68,3.45.67,6.52,3.97,11.45,8.93,15,1.53-1.41,2.84-2.49,3.99-3.72,1.18-1.26,3.2-2.77,3.08-4-.27-2.63-1.68-5.15-2.68-7.88-3.84,2.65-8.97,3.09-10.79,1.22.98-1.27,1.96-2.54,3.14-4.08Zm-115.6,24.76c-7.95-.32-23.67,3.64-24.98,6.04,8.59-2.08,16.79-4.06,24.98-6.04Zm136.93-17.09c-.34-.26-.67-.53-1.01-.79-.87.92-2.23,1.72-2.49,2.78-.42,1.72-.42,3.72.07,5.4.18.61,2.32.88,3.54.79.35-.02.86-1.83.8-2.79-.11-1.81-.59-3.6-.91-5.4Zm-8.34-51.71c-.35-.31-.69-.63-1.04-.94-2.93,2.12-5.79,4.37-8.83,6.33-2.07,1.33-1.92,2.43-.77,3.53,3.64-3.05,7.14-5.98,10.64-8.92Zm5.54,38.95c-4.85.49-8.05,6.53-6.33,11.5,2.02-3.67,4.2-7.64,6.33-11.5Zm-34.83-117.32c.29-.21.57-.42.86-.63-.45-1.92-.8-3.87-1.43-5.72-.14-.41-1.31-.46-2.01-.67-.11,1.9-.45,3.83-.2,5.68.08.56,1.81.9,2.78,1.34Zm34.75,128.89c.92-1.14,1.63-1.84,2.06-2.68.09-.18-1.08-1.36-1.28-1.27-.97.46-1.8,1.2-2.69,1.85.52.57,1.03,1.14,1.9,2.1Z"/>
  <path class="cls-1" d="m420.97,192.49c-1.58.3-3.25.36-4.72.94-3.71,1.45-7.33,3.14-11.32,4.88.36,2.54.94,5.52,1.17,8.52.29,3.84-.95,7.25-4.52,9.08-3.1,1.59-6.36,1.34-9.2-.91-2.01-1.59-3.53-3.76-2.02-6.18.79-1.27,3.03-2.48,4.41-2.29,1.37.19,3.13,1.98,3.59,3.42.82,2.6-1.01,4.2-3.48,5.02,3.86,1.91,8.17-.19,8.7-4.86.45-3.99-.3-8.11-.49-11.69-4.54-.78-8.38-1.02-11.96-2.12-11.73-3.6-17.11-14.69-12-25.81,2.3-5,6.33-9.22,9.67-13.73.82-1.11,2.01-1.96,3.3-3.19-3.31-3.5-6.44-6.94-9.72-10.23-3.29-3.3-6.73-6.46-10.49-10.05,2.89-1.15,4.04.65,5.35,2.17.76.88,1.65,1.64,2.47,2.46.56-1.14,1.09-2.3,1.69-3.42.33-.62.78-1.19,1.17-1.78.56.41,1.33.7,1.63,1.24.9,1.65,1.61,3.4,2.64,5.64.74-1.2,1.11-1.8,1.79-2.9.06,1.29-.07,2.13.16,2.86.35,1.12.94,2.16,1.43,3.24.65-.91,1.72-1.75,1.88-2.73.65-4.11,1-8.27,1.53-12.4.14-1.06.22-2.43.9-3.07,1.8-1.72,3.76-3.96,5.94-4.34,1.41-.25,4.11,2.08,4.85,3.84,1.36,3.22,1.79,6.85,2.42,10.34.34,1.89.28,3.84.41,5.81,1.41,0,2.47,0,3.53,0,.2.24.39.49.59.73,0,0-.11-.07-.11-.07.36.24.72.48,1.08.72l-.1.03c.47-.02.95-.03,1.42-.05l.16.08c.23.86.46,1.72.69,2.59l-.03-.12c-.37,2.77-.84,5.54-1.01,8.32-.04.61,1.01,1.29,1.56,1.94.39-.62.8-1.23,1.15-1.87.51-.94.74-2.21,1.5-2.79,4.06-3.1,4.37-7.38,4.13-11.92-.08-1.52-.33-3.13.08-4.53.26-.87,1.77-2.11,2.46-1.96,1.82.39,2.62-.43,3.82-1.52,1.47-1.33,3.42-2.13,5.91-3.6.16-1.78.95-4.32,4.86-3.37.43-1.18.82-2.25,1.19-3.28,7.31,1.19,12.38,6.52,11.15,12.51,5.51-.59,10.68-1.76,14.39-6.39,1.15-1.43,2.31-1.34,3.29.4.46.82,1.28,1.43,2.21,2.43,2.07-2.76,2.94-5.48,1.89-8.74.37-.12.74-.24,1.11-.36.79,2.41,1.58,4.82,2.36,7.23.34-.07.68-.13,1.03-.2.36-.81.72-1.61,1.17-2.63,2.17,2.79.89,4.95-.65,6.96-1.49,1.94-6.33,3.17-8.95,2.26,0,5.26-.1,10.42.08,15.57.04,1.03,1.23,1.98,1.71,3.05,2.09,4.71-.62,8.42-2.86,12.05-1.74,2.82-4.99,3.56-7.83,2.56-3.8-1.33-8.12-1.83-10.93-5.36-1.27-1.59-1.2-2.47,1.35-5.83.67,1.77,1.31,3.44,1.93,5.08,1.82-3.44,2.78-6.88,5-8.99,2.14-2.04,5.58-2.71,9.07-4.25v-7.89c-.15-.05-.3-.1-.46-.15-.18.57-.4,1.13-.53,1.71-.37,1.64-4.08,4.57-5.48,3.98-.74-.31-1.19-1.62-1.51-2.56-.7-2.03-4.21-3.67-5.98-2.52-.69.45-1.26,1.45-1.43,2.29-.57,2.75-.72,5.59-1.46,8.28-.34,1.23-1.89,2.08-2.54,3.28-1.01,1.85-2.11,3.79-2.46,5.81-.43,2.54-.17,5.21-.14,7.82.03,2.07.41,4.19-2.5,4.86-.42.1-.7,1.66-.7,2.55.02,6.29.18,12.59.19,18.88,0,4.67-5.82,8.34-10.04,6.35-2.27-1.07-2.65-3.02-2.05-5.23.24-.89.76-1.7,1.16-2.55-.17-.29-.35-.58-.52-.87-2.28.95-4.57,1.89-6.85,2.84,0,0,.05.15.05.15-.3-.3-.6-.61-.91-.91,0,0,.17.11.17.11-.53-.5-1.07-.99-1.6-1.49.26-.28.52-.56.78-.84,0,0-.03.1-.03.1-.26-.12-.51-.25-.77-.37l.1-.08c.03.35.07.7.1,1.05-.36.3-.73.6-1.09.89,0,0-.18-.18-.18-.18l.1.26Zm-2.84-35.8s-.1-.07-.15-.11c.09.02.17.04.26.06-1.04,1.95-2.09,3.9-3.39,6.33,3.39-.81,5.01-4.36,3.79-6.65-.17.12-.34.24-.51.36Zm-16.04,38.55c-1.43-7.53-2.77-14.58-4.19-22.09-3.95,3.96-4.19,8.47-4.32,13.05-2.55-5.47-2.81-10.96,1.26-15.52,2.83-3.18,1.67-6.01,1-9.51-4.71,3.73-8.94,7.44-11.53,12.62-2.51,5.02-2.33,9.97,1.36,14.3,4.08,4.78,9.54,6.89,16.42,7.15Zm2.29-25.68c-.48-.13-.96-.26-1.44-.39-1.09,1.3-3.28,2.77-3.1,3.88,1.14,7.35,2.79,14.62,4.41,22.61,3.11-.97,5.96-1.81,8.76-2.76,2.42-.82,3.1-2.3,1.74-4.69-3.51-6.19-6.92-12.43-10.37-18.65Zm-3.31-29.35c3.01-3.65,2.83-7.76,2.38-11.86-.09-.78-.95-1.95-1.6-2.06-.67-.12-1.82.67-2.25,1.37-.89,1.44-1.45,3.1-2.14,4.66-1.85,4.16-.94,6.23,3.61,7.89Zm34.28,21.05c1.19-.95,2.26-1.71,3.21-2.58,1.34-1.24,2.61-2.55,3.87-3.88.39-.42.95-1.09.84-1.46-.16-.53-.8-1.11-1.37-1.3-4.04-1.4-6.43,1.09-8.58,3.87-.65.84-1.57,2.26-1.26,2.85.5.98,1.89,1.51,3.31,2.51Zm5.56,16.17h-13.82c3,3.14,5.99,4.04,9.66,2.52.42-.18,1.51.6,1.91,1.19.42.63.25,1.62.56,2.36.92,2.27.7,4.21-1.35,5.76-.09.07-.05.3-.08.52h2.17c.31-4.03.62-7.96.96-12.34Zm-12.52-27.32c-.57-.05-1.01-.16-1.42-.1-1.15.16-2.29.39-3.43.6.47,1.19.69,2.6,1.47,3.54,2.43,2.89,4.43.44,6.3-.91,1.11-.81,1.84-2.14,2.74-3.24-1.03-.67-2.03-1.41-3.11-1.98-.53-.28-1.22-.27-2.02-.42-.2.94-.36,1.7-.54,2.52Zm14.79-12.61c-.21-.16-.43-.31-.64-.47-.68,1.05-1.75,2.04-1.91,3.17-.09.65,1.27,1.51,2.55,2.9v-5.6Zm-23.77,46.71l-1-.38-2.54,4.91c.53.23,1.07.46,1.6.69.65-1.74,1.3-3.48,1.94-5.22Zm40.01-46.39c-.03.37-.06.74-.1,1.1h5.27c-1.46-2.79-1.87-2.84-5.17-1.1Z"/>
  <path class="cls-1" d="m375.98,111.22c4.1.16,5.02,1.4,3.99,4.56-1.73,5.29-4.79,9.66-9.13,13.21-1.84,1.5-3.16,1.38-5.12.09-7.44-4.89-15.07-9.49-22.55-14.32-2.44-1.58-4.53-1.68-6.75.25-.73.63-1.61,1.16-2.51,1.48-.47.17-1.14-.19-1.72-.31.18-.55.19-1.31.57-1.61,1.18-.92,2.49-1.67,4.24-2.79-4.3-1.94-8.11-3.65-12.47-5.62,1.32-1.12,2.32-2.19,3.53-2.95,2.38-1.48,4.99-2.62,7.27-4.23,1.16-.82,2.36-2.25,2.6-3.57.38-2.05,1.49-2.54,3.13-2.48,4.38.17,8.38,1.24,11.22,5.88,2.83-3.57,5.43-6.85,8.02-10.14.2-.25.52-.72.43-.83-2.8-3.78,1.07-4.62,2.86-6.02,3.97-3.11,5.26-7.68,6.79-12,3.21-9.06,4.99-18.4,4.64-28.12-.56-15.44-10.06-27.28-25.13-30.36-7.41-1.51-14.67-.74-21.46,3.82,6.24,3.95,8.98,9.44,6.99,16.3-1.99,6.85-7.31,9.97-13.93,10.2-1.16,2.17-2.48,3.95-3.08,5.95-.46,1.54-.18,3.37.06,5.03.18,1.24,1.27,2.5,1.07,3.58-.11.6-2.06.85-3.82,1.49,0-1.82.11-2.98-.03-4.1-.22-1.77-.57-3.53-.92-5.28-.29-1.47-1.19-3.08-.85-4.38.81-3.06-.36-4.78-2.5-6.82-4.48-4.28-5.28-12.12-2.15-18.58,4.75-9.79,12.78-15.56,23.3-17.62,14.26-2.79,27.01.58,37.63,10.68,7.27,6.91,10.74,15.65,11.38,25.59.86,13.34-2.01,26.08-7.69,37.94-4.21,8.8-10.16,16.67-17.16,23.64-3.65,3.63-5.47,8.45-5.53,14.24.76-.52,1.62-.78,1.75-1.25,1.5-5.26,6.14-5.16,10.1-5.61,2.26-.26,4.25-.29,5.76-2.2,2.4-3.04,5.55-2.96,8.75-1.79,1.51.55,2.49,1.61,1.21,3.51-1.05,1.56-1.72,3.37-2.78,5.52Z"/>
  <path class="cls-1" d="m415.84,128.86c0-3.09,0-6.96,0-10.82,0-17.72,0-35.44,0-53.15,0-5.44,3.02-9,7.54-11.29,4.86-2.46,9.95-3.26,14.89-.08,2.51,1.61,3.47,4.09,3.27,7.03-.06.92-.22,1.84-.36,2.92,1.91-.17,3.52-.07,4.95-.53.79-.25,1.47-1.36,1.85-2.24.37-.86.08-2.01.49-2.84.66-1.35,1.64-2.53,2.49-3.78,1.46,1.27,2.96,2.5,4.38,3.82.84.78,1.54,1.72,2.3,2.58.71-.63,1.69-1.14,2.01-1.92.18-.45-.57-1.71-1.17-1.96-2.54-1.05-2.13-2.73-1.24-5.42.77,1.79,1.26,2.92,2.07,4.82.75-2.18,1.2-3.45,1.57-4.54,2.11,1.69,4.08,2.9,5.57,4.55,2.36,2.61,5.46,5.21,6.33,8.34,1.53,5.51,4.38,8.8,9.97,9.73-.66,2.75-1.28,4.91-4.74,3.91-.78-.22-1.95.92-2.94,1.45-.86.46-1.7.93-2.68,1.46-.1-2.24-.16-3.62-.22-5-2.27.37-4.54.74-7.32,1.2,1.35,4.22,2.52,7.92,3.8,11.93-3.47-.82-5.75.12-6.97,3.68-.46,1.33-2.48,2.13-3.78,3.16,2.53,3.31,2.51,3.28,5.14.3.99-1.12,2.18-2.07,2.99-2.82,1.32,1.06,3.27,2.17,4.56,3.8,1.14,1.44,2.57,3.88,2.07,5.16-1.24,3.13-3.1,6.32-7.3,6.53-.94.05-2.04.14-2.77.64-4.03,2.76-7.01,1.94-8.71-2.51-.52-1.35-1.2-2.63-1.81-3.94-1.07,1.08-1.96,2.53-3.25,3.15-1.65.79-3.62.92-5.89,1.44-.13.5-.45,1.74-.67,2.61,1.39.53,2.76.84,3.82,1.59.3.21-.12,2.36-.52,2.48-1.58.44-3.29.42-5.21.6-3.88,2.74-8.17,5.83-12.52,8.85-3.56,2.47-7.05,4.74-8.84,9.22-.56,1.4-4.42,1.52-6.79,2.14-.9.24-1.86.24-3.66.44.59-2.15.88-4.62,2.03-6.6.39-.68,2.93-.11,5.29-.11Zm11.15-32.3c-.72-4.34,1.01-6.13,5-5.55,1.07.15,2.2.26,3.24.08,2.68-.46,5.32-1.31,4.57-4.83-.59-2.79-1.62-5.5-2.6-8.19-.67-1.83-1.39-3.68.65-4.95,3.26-2.02,2.8-5.07,2.91-8.88-5.87,7.43-12.74,9.81-21.1,6.84v53.99c2.46-1.72,4.69-3.24,6.89-4.81,3.18-2.27,6.69-4.22,9.36-6.98,1.71-1.76,2.43-4.65,3.08-7.17.44-1.71-.55-2.68-2.68-3.13-1.7-.36-4.03-2.07-4.37-3.57-.74-3.22-1.95-4.28-4.97-2.85Z"/>
  <path class="cls-1" d="m228.36,314.86c.41-.13.61-.24.82-.25q7.27-.39,9.42,6.56c2.19,7.11,4.34,14.24,7.07,21.28v-27.69h8.2v61.13h-8.39c2.16-13.92-5.18-25.57-8.95-38.14v38.17h-8.17v-61.07Z"/>
  <path class="cls-1" d="m319.71,314.72c6.24,0,12.32-.19,18.39.06,4.41.19,7.32,3.55,7.45,8.4.18,6.42.29,12.85-.09,19.25-.14,2.3-1.29,4.98-2.87,6.64-1.58,1.66-1.64,2.89-1.17,4.8,1.63,6.64,3.12,13.32,4.64,19.99.14.62.13,1.28.2,2.1h-7.75c-1.81-8.12-3.63-16.25-5.48-24.55h-5.09v24.55h-8.23v-61.25Zm8.42,7.41v22.09c1.5,0,2.79.01,4.07,0,4.1-.05,4.92-.85,4.97-5.01.04-3.04.01-6.09,0-9.13,0-8.15-.56-8.66-9.06-7.95Z"/>
  <path class="cls-1" d="m221.12,345.37c0,6.63.05,13.26-.01,19.89-.07,7.87-3.1,10.84-10.88,10.86-2.5,0-5,.02-7.5,0-6.17-.07-9.71-2.87-9.82-8.9-.26-14.56-.26-29.13,0-43.69.11-5.95,3.45-8.68,9.48-8.9,2.93-.11,5.87-.12,8.8-.04,6.61.18,9.68,3.13,9.86,9.91.19,6.95.04,13.91.04,20.87h.01Zm-19.9-.02c0,6.2-.02,12.4,0,18.6.02,4,.98,4.82,5.49,4.85,5.14.04,5.93-.5,5.95-4.6.05-12.51.05-25.02,0-37.53-.02-4.16-.94-4.79-6.24-4.74-4.14.04-5.19.97-5.21,4.82-.03,6.2,0,12.4,0,18.6Z"/>
  <path class="cls-1" d="m264.86,409.87v72.5h-4.73c0-6.11-.04-12.16.01-18.21.06-7.17.27-14.33.31-21.5.07-12.68.83-25.43-.15-38.04-.93-11.96,8.94-18.31,17.82-19.13,5.29-.48,10.62,2.11,12.49,6.02,1.94,4.06.78,9.49-3.69,13.15-2.85,2.33-6.34,4.44-9.86,5.22-3.82.85-8.02.06-12.19-.02Z"/>
  <path class="cls-1" d="m286.71,331.91h-8.37c0-2.21,0-4.25,0-6.29-.01-2.9-1.89-3.62-4.33-3.69-2.45-.07-4.36.53-4.35,3.52,0,13.27,0,26.54,0,39.81,0,2.99,1.87,3.59,4.33,3.56,2.42-.03,4.37-.6,4.36-3.58,0-.97,0-1.95,0-3.2h8.19c0,2.24.26,4.52-.05,6.71-.67,4.66-3.71,7.19-8.51,7.36-2.5.09-5,.06-7.5.01-5.69-.11-8.98-3.08-9.16-8.81-.23-7.06-.1-14.14-.11-21.21-.01-7.07-.07-14.14.02-21.21.09-7.25,3.14-10.2,10.42-10.29,2.07-.03,4.14-.05,6.2.06,5.57.31,8.54,3.23,8.86,8.82.16,2.7.03,5.43.03,8.43Z"/>
  <path class="cls-1" d="m292.97,375.98v-61.21h20.73v7.06h-12.16v18.9h10.64v7.37h-10.69v20.6h12.26v7.28h-20.78Z"/>
  <path class="cls-1" d="m357.43,321.97h-8.03v-7.18h24.17v7.12h-7.71v53.96h-8.42v-53.89Z"/>
  <path class="cls-1" d="m281.25,69.26c2.07-1.9,3.88-3.37,5.45-5.06,4.93-5.26,8.18-11.24,7.38-18.76-.48-4.56-3.79-7.83-8.27-8.28-2.79-.28-4.03.97-3.69,3.72.44,3.55-.72,5.09-4.27,5.44-2.36.23-4.76.12-7.09.47-1.35.2-2.61,1-4.37,1.72-.22-.66-.82-1.75-.96-2.9-.66-5.73,3.67-12.23,9.2-13.93.49-.15,1.06-.32,1.54-.21,3.86.88,7.74,1.71,11.55,2.79,5.63,1.6,9.14,7.01,9.06,13.63-.1,7.96-7.26,18.06-15.53,21.39Z"/>
  <path class="cls-1" d="m393.53,69.02c-4.35-.02-7.79-3.39-7.72-7.58.07-4.2,3.56-7.45,7.92-7.37,4.12.08,7.47,3.5,7.39,7.54-.08,4.04-3.54,7.42-7.59,7.41Z"/>
  <path class="cls-1" d="m288.71,424.91c.16-.5.32-.99.49-1.49.09,0,.18.02.27.03-.09.02-.18.05-.28.07.67-3.61,3.82-4.79,6.51-6.02,2.98-1.36,6.31-1.94,9.58-2.89,1.22.73,2.93,1.52,4.3,2.7.54.46.7,2.03.33,2.7-.46.83-1.62,1.32-2.53,1.86-2.37,1.38-4.67,2.94-7.19,3.97-1.83.76-3.96.8-5.96,1.16,0,0,.23.09.23.09-1.89-.8-3.77-1.61-5.66-2.41,0,0-.09.23-.09.23Z"/>
  <path class="cls-1" d="m485.75,105.06c-2.52.82-5.68-4.65-8.74.29-.19-.21-.37-.41-.56-.62.26-.91.45-1.86.81-2.73.83-2.03,1.63-3.93-.05-6.04-.38-.47.11-1.96.6-2.73,1.25-1.94,2.65-3.79,4.12-5.58,1.25-1.52,2.38-3.62,4.96-2.34,1.74.86,2.12,3.68,1.1,5.67-1.33,2.6-3.29,5.01-1.47,8.43.63,1.18-.4,3.25-.78,5.65Z"/>
  <path class="cls-1" d="m494.61,145.35c-.7.25-3.92-.8-1.89,3.36l-.82.26c-.91-.55-2.03-.92-2.67-1.69-1.33-1.62-2.57-2.59-4.64-1.13-.41.29-1.26-.06-1.9-.12.23-.59.47-1.19.7-1.78,1.3-3.26,5.06-5.93,2.02-10.21-.93-1.31,1.44-3.47,3.12-2.59,1.56.82,3.04,2.38,3.8,3.97.75,1.57.44,3.62.82,5.41.32,1.54.96,3.02,1.46,4.52Z"/>
  <path class="cls-1" d="m359.72,65.78c3.34,2.39,3.11,4.31,1.37,6.21-1.7,1.86-2.27,3.64-.87,6.04,1.3,2.23-.38,3.67-2.09,4.76-2.2,1.4-4.12.69-5.8-1.06-1.56-1.63-.6-2.7.51-4.15,1.21-1.59,1.71-3.71,2.73-5.47,1.23-2.13,2.69-4.12,4.15-6.32Z"/>
  <path class="cls-1" d="m210.8,461.37v-11.8c3.61-.83,7.13-1.63,11.28-2.58,0,4.77.1,9.16-.09,13.53-.04.84-1.03,2.03-1.86,2.33-.74.28-1.85-.44-2.8-.71.36-.8.55-1.77,1.13-2.36.55-.55,1.5-.69,2.29-1.02v-7.1c-2.85.73-5.52,1.32-8.1,2.17-.5.17-.86,1.37-.91,2.13-.14,2.05.01,4.13-.15,6.18-.07.89-.39,2.04-1.02,2.52-.65.49-1.81.41-2.74.35-.3-.02-.88-.98-.76-1.17.47-.77,1.07-1.51,1.79-2.04.45-.33,1.19-.28,1.94-.43Z"/>
  <path class="cls-1" d="m299.1,55.97c2.84.69,4.03,2.66,3.31,5.44-.83,3.18-4.86,5.73-8.22,5.25-.92-.13-1.88-.02-3.11-.02,1.62-3.4,3.01-6.66,4.76-9.71.43-.76,2.03-.86,3.09-1.26.07.06.13.16.18.3Z"/>
  <path class="cls-1" d="m161.95,88.49c.33-1.96.19-3.05.67-3.62,2.17-2.56,2.84-6.82,7.46-6.79.46,0,.92-1.16,1.38-1.78.63-.85,1.14-1.87,1.96-2.46.24-.17,1.82.77,1.97,1.4.27,1.08.31,2.63-.29,3.43-1.54,2.07-3.26,4.13-5.31,5.67-2.05,1.55-4.58,2.46-7.84,4.14Z"/>
  <path class="cls-1" d="m107.76,395.37c1.85-1.42,3.05-2.38,4.8-.49.79.85,2.29,1.04,4.04,1.76,2.31,4.19,1.27,7.13-4.3,10.22-1.95,1.08-3.6,1.64-4.88-1.28.61-.54,1.2-1.37,2-1.72,2.15-.94,4.1-2.3,3.46-4.75-.31-1.18-2.36-1.9-3.62-2.82-.33-.24-.69-.43-1.49-.92Z"/>
  <path class="cls-1" d="m85.56,384.7c1.16-3.08,2.44-3.94,4.25-2.29,1.76,1.61,3.32,1.36,5.27.42,1.5-.72,3.26-.91,4.9-1.32.19-.05.53-.05.6.06.55.87,1.58,1.85,1.45,2.63-.3,1.83-.94,3.7-1.93,5.24-.26.41-2.42-.01-3.43-.56-.86-.47-1.42-1.62-1.95-2.56-1.03-1.85-2.5-2.05-4.42-1.68-1.38.27-2.85.05-4.74.05Z"/>
  <path class="cls-1" d="m547.74,366.96c.73,1.81,1.65,3.37,1.92,5.03.19,1.2-.07,3.15-.86,3.68-1.16.79-3.22,1.18-4.44.67-1-.42-1.91-2.43-1.87-3.7.09-3.02,2.04-4.85,5.25-5.67Z"/>
  <path class="cls-1" d="m276.5,417.57c-1.27-.37-3.52,1.24-3.55-2.21,5.11-.51,10.21-1.02,16.08-1.61-3.62,2.89-6.58,5.25-9.82,7.83-.86-1.22-1.82-2.57-2.78-3.93,0,0,.08-.08.08-.08Z"/>
  <path class="cls-1" d="m189.81,70.62c-.78,2.93-5.82,7.08-8.16,6.67-.79-.14-1.83-1.48-1.93-2.36-.3-2.68,2.26-4.88,5.35-4.8,1.5.04,3,.31,4.73.5Z"/>
  <path class="cls-1" d="m128.6,114.14c-2.57-.02-3.57-.88-3.61-2.97-.06-3.12,2.57-3.13,4.3-3.27,1.05-.08,3.15,1.65,3.21,2.68.19,2.78-2.34,3.16-3.9,3.56Z"/>
  <path class="cls-1" d="m351.58,53.56c-.06,3.48-.99,5.48-3.6,5.47-.81,0-2.14-1.82-2.3-2.95-.33-2.31.51-4.52,3.36-4.36,1.05.06,2.02,1.43,2.55,1.84Z"/>
  <path class="cls-1" d="m314.08,408.62c1.72,3.12,1.34,5.74-1.35,8.74-.16-1.49-.24-2.32-.34-3.27-1.02-.13-2.05-.27-3.04-.4-.74-3.8-.47-4.09,4.73-5.07Z"/>
  <path class="cls-1" d="m99.41,95.22c-2.63,0-2.86,4.91-5.94,2.27-1.02-.87-1.64-4.1-1-4.68,2.71-2.46,4.62-.05,6.94,2.41Z"/>
  <path class="cls-1" d="m90.76,156.08c.11-.26.23-.51.34-.77.29.22.59.45.88.67.16.44.33.89.49,1.33.39.79.79,1.58,1.17,2.36.99,1.65,2.03,3.31.27,5.09-1.62-.48-3.1-.92-5-1.48.59-2.3,1.21-4.75,1.84-7.2Z"/>
  <path class="cls-1" d="m509.75,307c.36-.87.72-1.74,1.17-2.82.73.66,1.54,1.4,2.8,2.54-.67-3.14.26-5.13,2.64-6.96,1.15,3.48.66,6.34-1.75,8.12-.9.67-3.2-.54-4.87-.91,0-.01,0,.03,0,.03Z"/>
  <path class="cls-1" d="m83.89,170.99c-.37-.54-.75-1.09-1.13-1.61.48-1,.98-2.01,1.47-3.02-.03-.92-.43-2.08-.02-2.71.54-.82,1.72-1.21,2.63-1.79.22,1,.59,2,.61,3.01.01.7-.45,1.42-.7,2.13,0,0,.1-.18.1-.18-.16.74-.32,1.47-.49,2.21-.27.23-.55.46-.82.69,0,0,.07-.11.07-.11-.57.45-1.14.9-1.71,1.35l-.03.04Z"/>
  <path class="cls-1" d="m84.23,166.36c-.49,1.01-.99,2.03-1.47,3.02-1.16.25-2.32.53-3.49.8.74-1.62,1.23-3.45,2.3-4.8,1.26-1.58,2.21-.59,2.65.98Z"/>
  <path class="cls-1" d="m299.1,55.97c-.04-.14-.1-.24-.18-.3-.46-.81-1.34-1.65-1.28-2.42.07-.99.66-2.28,1.45-2.77.58-.36,2.34.08,2.65.66.43.8.31,2.24-.16,3.08-.44.8-1.63,1.18-2.48,1.75Z"/>
  <path class="cls-1" d="m276.5,417.57s-.08.08-.08.08c.14,3.2.39,6.4.34,9.59-.01.65-1.1,1.43-1.85,1.86-.28.16-1.03-.49-1.56-.78.37-.69.82-1.36,1.11-2.09.4-1.02.75-2.08.99-3.15.41-1.83.71-3.68,1.06-5.52Z"/>
  <path class="cls-1" d="m457.53,318.6c-1.35,1.7-2.38,3.01-3.41,4.31-.59-.64-1.8-1.62-1.66-1.88.71-1.33,1.7-2.55,2.76-3.63.15-.15,1.25.63,2.3,1.2Z"/>
  <path class="cls-1" d="m487,164.54c-.85-2.16-1.48-3.78-2.11-5.39.72-.19,1.76-.79,2.12-.51,1.81,1.39,1.95,3.15-.01,5.91Z"/>
  <path class="cls-1" d="m408.03,77.15c.05,1.47.16,2.94.07,4.4-.01.2-1.01.35-1.54.52-.2-1.6-.4-3.19-.61-4.79.69-.04,1.39-.09,2.08-.13Z"/>
  <path class="cls-1" d="m487.48,131.09c-1.65-1.5-2.92-2.67-4.77-4.36,4.91-.38,5.37.06,4.77,4.36Z"/>
  <path class="cls-1" d="m102.37,399.79c-.85-1.49-1.7-2.38-1.51-2.75.47-.9,1.4-1.56,2.15-2.32.38.51,1.16,1.11,1.07,1.52-.22.97-.85,1.85-1.71,3.55Z"/>
  <path class="cls-1" d="m460.52,120.42c.97,1.38,1.7,2.1,1.97,2.96.11.35-.79,1.02-1.23,1.54-.76-.64-1.69-1.18-2.18-1.99-.18-.3.67-1.23,1.44-2.51Z"/>
  <path class="cls-1" d="m474.68,147.48c.7,1.18,1.5,1.92,1.41,2.51-.12.77-.96,1.42-1.49,2.13-.53-.73-1.36-1.41-1.47-2.19-.08-.58.78-1.29,1.55-2.45Z"/>
  <path class="cls-1" d="m415.38,144.15l.03.12s.06-.02.06-.02c.23-.88.45-1.76.68-2.64,0-.24,0-.48,0-.72-.13-.24-.25-.49-.38-.73,2.09-.8,2.04.96,1.44,1.66-.63.74,1.06,3.51-1.82,2.32Z"/>
  <path class="cls-1" d="m277.96,89.4s.08-.07.08-.07c-.35-.24-.7-.48-1.05-.73l.08.09c-.24-.25-.49-.5-.73-.75,0,0,.06.11.06.11,0-.25,0-.51,0-.76l-.08.11c.25-.25.5-.5.75-.75,0,0-.09.09-.09.09h.74l-.08-.1c.24.48.48.95.72,1.43l-.09-.04c-.1.46-.2.91-.29,1.37Z"/>
  <path class="cls-1" d="m86.62,169.66c.32.31.65.61.97.92-.35.58-.7,1.17-1.06,1.75,0,0,.09-.02.09-.02,0-.89,0-1.77-.01-2.66Z"/>
  <path class="cls-1" d="m277.98,85.27c.09.92.18,1.84.27,2.76,0,0,.09.04.09.04-.24-.48-.48-.95-.72-1.43l.08.1c0-.25,0-.49,0-.74l-.1.07c.13-.27.26-.54.39-.81Z"/>
  <path class="cls-1" d="m275.46,88.05c.36-.96.71-1.92,1.07-2.87.17.31.33.62.5.93l-.08-.1c0,.25,0,.49,0,.74l.09-.09c-.25.25-.5.5-.75.75,0,0,.08-.11.08-.11-.31.25-.61.5-.92.75Z"/>
  <path class="cls-1" d="m86.62,169.66c0,.89,0,1.77.01,2.66-.35-.03-.69-.06-1.04-.09,0,0,.06.09.06.09,0-.91-.01-1.81-.02-2.72,0,0-.07.11-.07.11.27-.28.54-.57.81-.85.08.26.17.53.25.79Z"/>
  <path class="cls-1" d="m395.84,412.95c0-.4.02-.8.02-1.2.23-.14.47-.29.7-.43.23.23.46.47.7.7,0,.23,0,.45-.01.68-.25.23-.51.45-.76.68l.06-.11c-.23-.1-.47-.21-.7-.31Z"/>
  <polygon class="cls-1" points="420.97 192.49 420.88 192.23 421.06 192.41 420.96 192.36 420.97 192.49"/>
  <path class="cls-1" d="m99.63,358.99c-.3.27-.6.54-.9.81,0,0-.08.02-.08.02.36-.25.71-.49,1.07-.74,0,0-.09-.09-.09-.09Z"/>
  <path class="cls-1" d="m396.56,411.32c-.23.14-.47.29-.7.43,0-.71-.02-1.41-.03-2.12.27.14.53.29.8.43,0,0-.11-.06-.11-.06,0,.47-.01.94-.02,1.41l.06-.09Z"/>
  <path class="cls-1" d="m493.28,347.36c.01-.18.03-.37.04-.55.1.05.21.11.31.16l-.44.31.08.08Z"/>
  <path class="cls-1" d="m86.36,168.87c-.27.28-.54.57-.81.85.27-.23.55-.46.82-.69,0,0-.01-.16-.01-.16Z"/>
  <path class="cls-1" d="m398.46,413.3c-.55.29-1.1.59-1.65.88.14-.3.29-.6.43-.91l-.08.09c.46,0,.93,0,1.39,0l-.09-.07Z"/>
  <path class="cls-1" d="m86.53,172.33c.35-.58.7-1.17,1.06-1.75-.35.58-.7,1.17-1.06,1.75Z"/>
  <path class="cls-1" d="m422.76,190.81c-.26.28-.52.56-.78.84,0,0,.07-.2.07-.2,0,0-.06-.18-.06-.18.26-.15.52-.31.78-.46Z"/>
  <path class="cls-1" d="m277.98,85.27c-.13.27-.26.54-.39.81.15-.24.3-.47.45-.71l-.06-.1Z"/>
  <path class="cls-1" d="m278.04,85.37c-.15.24-.3.48-.45.71,0,0,.1-.07.1-.07-.25,0-.49,0-.74,0,0,0,.08.1.08.1-.2-.31-.39-.62-.59-.92.53.06,1.06.12,1.6.18Z"/>
  <path class="cls-1" d="m276.44,85.19c.2.31.39.62.59.92-.16-.31-.33-.62-.5-.93,0,0-.09,0-.09,0Z"/>
  <path class="cls-1" d="m275.46,88.05c.31-.25.61-.5.92-.75,0,.25,0,.51,0,.76-.29-.04-.58-.09-.88-.12,0,0-.04.12-.04.12Z"/>
  <path class="cls-1" d="m85.59,172.23c-.19.01-.39.02-.58.03,0,0-.09.06-.09.06.24,0,.48,0,.73,0,0,0-.06-.09-.06-.09Z"/>
  <path class="cls-1" d="m85.01,172.26c-.22-.22-.44-.43-.66-.65,0,0-.08.04-.08.04.22.22.44.45.66.67l.09-.06Z"/>
  <path class="cls-1" d="m83.89,170.99s.03-.04.03-.04c.11.23.23.47.34.7,0,0,.08-.04.08-.04-.15-.21-.3-.41-.45-.62Z"/>
  <polygon class="cls-1" points="493.2 347.27 493.1 347.47 493.28 347.36 493.2 347.27"/>
  <path class="cls-1" d="m101.32,358.03s.1-.18.1-.18c0,0-.1.18-.1.18Z"/>
  <path class="cls-1" d="m96.77,358.94s.1.1.09.1c0,0-.09-.1-.09-.1Z"/>
  <path class="cls-1" d="m98.72,359.79c-.13-.27-.25-.54-.38-.82,0,0-.06.09-.06.09.12.25.24.5.36.75l.08-.02Z"/>
  <path class="cls-1" d="m98.64,359.82c-.12-.25-.24-.5-.36-.75.48,0,.95,0,1.43,0-.36.25-.71.49-1.07.74Z"/>
  <path class="cls-1" d="m86.86,166.82s-.1.18-.1.18c0,0,.1-.18.1-.18Z"/>
  <path class="cls-1" d="m415.76,140.16c.13.24.25.49.38.73h.04c-.25.02-.49.05-.74.08l.43-.73-.11-.08Z"/>
  <path class="cls-1" d="m415.87,140.24c-.14.24-.28.49-.43.73,0,0,.08-.09.08-.09-.25,0-.49,0-.74,0,0,0,.08.09.08.09-.14-.27-.28-.54-.42-.81.47.03.94.05,1.41.08Z"/>
  <path class="cls-1" d="m414.46,140.16c.14.27.28.54.42.81-.25,0-.5,0-.75,0,.15-.24.29-.48.44-.72,0,0-.11-.08-.11-.08Z"/>
  <path class="cls-1" d="m414.57,140.24c-.15.24-.29.48-.44.72l.08-.09c-.24.03-.48.06-.72.1-.11-.27-.22-.54-.33-.81.47.03.94.05,1.41.08Z"/>
  <path class="cls-1" d="m422.15,191.51c-.03-.35-.07-.7-.1-1.05-.02.27-.05.54-.07.81,0,0,.06.18.06.18,0,0,.11.05.11.05Z"/>
  <path class="cls-1" d="m396.63,410.06c-.27-.14-.53-.29-.8-.43,0,0,.06.12.06.12-.01-.33-.03-.65-.04-.98.26.43.52.85.78,1.28Z"/>
  <path class="cls-1" d="m424.31,193.95s-.04-.15-.05-.15c0,0,.05.15.05.15Z"/>
  <path class="cls-1" d="m401.49,412.75s.03.02.03.02c0,0-.03-.02-.03-.02Z"/>
  <path class="cls-1" d="m399.18,413.05s0-.09,0-.09c-.24.12-.48.23-.72.35,0,0,.09.07.09.07,0-.25,0-.49,0-.74l-.09.08c.24.11.48.22.72.33Z"/>
  <path class="cls-1" d="m395.84,412.95c.23.1.47.21.7.31.12.31.25.62.37.93l-1.07-1.24Z"/>
  <path class="cls-1" d="m396.91,414.19c-.12-.31-.25-.62-.37-.93,0,0-.06.11-.06.11.25-.03.51-.06.76-.09-.14.3-.29.6-.43.91,0,0,.1,0,.1,0Z"/>
  <path class="cls-1" d="m423.58,193.15s-.18-.11-.17-.11c0,0,.17.11.17.11Z"/>
  <path class="cls-1" d="m413.15,140.16c.11.27.22.54.33.81,0,0,.1-.09.1-.09-.26.03-.51.06-.77.09.15-.24.29-.49.44-.73l-.11-.08Z"/>
  <path class="cls-1" d="m413.26,140.24c-.15.24-.29.49-.44.73,0,0,.08-.09.08-.09-.25,0-.5.02-.75.02l.11.07c-.24-.22-.48-.45-.71-.67.57-.02,1.14-.04,1.7-.07Z"/>
  <path class="cls-1" d="m411.55,140.3c.24.22.48.45.71.67-.2-.24-.39-.49-.59-.73,0,0-.12.06-.12.06Z"/>
  <path class="cls-1" d="m253.83,419.29c.13-.27.27-.53.4-.8,0,0-.09-.02-.09-.02-.13.26-.25.53-.38.79,0,0,.07.03.07.03Z"/>
  <path class="cls-1" d="m253.76,419.26c.13-.26.25-.53.38-.79-.13.26-.25.53-.38.79Z"/>
  <path class="cls-1" d="m289.19,423.51c.09-.02.18-.05.28-.07-.09,0-.18-.02-.27-.03,0,0,0,.1,0,.1Z"/>
  <path class="cls-1" d="m288.71,424.91s.09-.22.09-.23-.09.23-.09.23Z"/>
  <path class="cls-1" d="m294.46,427.09s-.22-.09-.23-.09c0,0,.23.09.23.09Z"/>
  <path class="cls-1" d="m75.48,250.05c.54.19,1.08.38,1.62.57l.05-.02-.76.76.11-.09c-.25.03-.49.06-.74.09-.09-.44-.19-.88-.28-1.32Z"/>
  <path class="cls-1" d="m75.48,250.05c.09.44.19.88.28,1.32,0,0,.08-.09.08-.09-.25.03-.5.06-.75.1-.08-.54-.15-1.08-.23-1.62.23.12.46.24.7.36,0,0-.09-.06-.09-.06Z"/>
  <path class="cls-1" d="m91.99,155.98s-.12-.09-.12-.09c.2.47.41.95.61,1.42-.17-.44-.33-.89-.49-1.33Z"/>
  <path class="cls-1" d="m76.4,251.98c.05.35.09.69.14,1.04-.26-.12-.52-.23-.78-.35.03-.25.06-.49.09-.74l-.1.1c.25,0,.5,0,.75,0l-.1-.04Z"/>
  <path class="cls-1" d="m74.48,253.24c-.19-.22-.39-.44-.58-.66,0,0-.1.09-.1.09.25-.03.5-.06.74-.09-.03.25-.06.5-.09.75,0,0,.03-.09.03-.09Z"/>
  <path class="cls-1" d="m75.75,252.67c.26.12.52.23.78.35,0,0-.04-.1-.04-.1-.24.11-.49.22-.73.33,0,0,.08.08.08.08,0-.25,0-.49,0-.74l-.09.08Z"/>
  <path class="cls-1" d="m75.54,254.02c-.35-.26-.71-.52-1.06-.78,0,0-.03.09-.03.09.25-.03.5-.06.74-.09.12.26.23.52.35.78Z"/>
  <path class="cls-1" d="m75.54,254.02c-.12-.26-.23-.52-.35-.78l-.08.09c.25,0,.49,0,.74,0,0,0-.08-.08-.08-.08-.11.24-.22.49-.33.73l.1.04Z"/>
  <path class="cls-1" d="m75.44,253.98c.11-.24.22-.49.33-.73.24-.11.49-.22.73-.33-.35.35-.71.71-1.06,1.06Z"/>
  <path class="cls-1" d="m276.32,87.95c.24.25.49.5.73.75-.26-.03-.52-.05-.77-.08l-.1.05c.05-.24.1-.48.14-.72Z"/>
  <path class="cls-1" d="m276.72,89.4c-.18-.24-.35-.49-.53-.73,0,0,.1-.04.1-.04.14.26.29.52.43.78Z"/>
  <path class="cls-1" d="m72.81,252.65s.09.01.09.01c-.15-.25-.29-.49-.44-.74.26,0,.52,0,.78,0-.14.24-.29.48-.43.72Z"/>
  <path class="cls-1" d="m276.72,89.4c-.14-.26-.29-.52-.43-.78.26.03.52.05.77.08,0,0-.08-.09-.08-.09-.12.25-.24.49-.35.74,0,0,.09.05.09.05Z"/>
  <path class="cls-1" d="m72.46,251.93c.15.25.29.49.44.74-.32-.23-.64-.46-.96-.68,0,0-.09.04-.09.04.24,0,.48,0,.72,0l-.1-.09Z"/>
  <path class="cls-1" d="m77.11,251.35c-.24.21-.48.42-.71.63,0,0,.1.04.1.04,0-.25,0-.5,0-.75,0,0-.11.09-.11.09.25,0,.51,0,.76,0,0,0-.04-.01-.04-.01Z"/>
  <path class="cls-1" d="m276.63,89.34c.12-.25.24-.49.35-.74.35.24.7.48,1.05.73-.47,0-.94,0-1.41.01Z"/>
  <path class="cls-1" d="m71.47,251.35s.03-.06.03-.06c.12.24.23.49.35.73,0,0,.09-.04.09-.04-.16-.21-.31-.42-.47-.63Z"/>
  <path class="cls-1" d="m77.1,250.62c0,.24,0,.49.01.73,0,0,.04.01.04.01,0-.25,0-.51,0-.76l-.05.02Z"/>
  <path class="cls-1" d="m72.81,252.65c.14-.24.29-.48.43-.72,0,0-.1.09-.1.09.25-.03.49-.06.74-.09-.03.25-.06.5-.09.75,0,0,.1-.09.1-.09-.36.02-.72.05-1.08.07Z"/>
  <path class="cls-1" d="m397.09,407.96c.35-1.05.7-2.11,1.04-3.16.36.24.72.48,1.08.72l-.1-.08c0,.25,0,.5.01.75l.06-.12c-.23.23-.45.46-.68.69-.04.21-.04.42,0,.63.23.26.46.51.68.77,0,0-.05-.12-.05-.12,0,.25-.01.5-.02.76l.09-.09c-.25.25-.5.5-.75.75,0,0,.09-.09.09-.09-.25,0-.49,0-.74,0l.08.1c-.24-.47-.48-.95-.71-1.42l-.08-.08Z"/>
  <path class="cls-1" d="m396.63,410.06c-.26-.43-.52-.85-.78-1.28.41-.27.82-.54,1.24-.81,0,0,.08.08.08.08.24.47.48.95.71,1.42,0,0-.08-.1-.08-.1,0,.68,0,1.36,0,2.04,0,0,.1-.07.1-.07-.25,0-.5-.01-.76-.02l.09.08c-.24-.47-.49-.94-.73-1.41l.11.06Z"/>
  <path class="cls-1" d="m400.19,405.47c-.08,1.13-.16,2.26-.24,3.39l-.09-.09c-.24-.25-.49-.49-.73-.74,0,0,.05.12.05.12,0-.23-.01-.46-.02-.69,0-.24,0-.48,0-.71,0-.23.02-.46.03-.68,0,0-.06.12-.06.12.35-.24.71-.48,1.06-.72Z"/>
  <path class="cls-1" d="m399.95,408.86c-.26.71-.51,1.42-.77,2.13-.24.11-.48.22-.72.33l.09.08v-2.04l-.09.09c.25-.25.5-.5.75-.75l-.09.09c.25,0,.5-.01.75-.02l.09.09Z"/>
  <path class="cls-1" d="m398.46,411.32c.24-.11.48-.22.72-.33,0,.68,0,1.37,0,2.05-.24-.11-.48-.22-.72-.33,0-.46,0-.93,0-1.39Z"/>
  <path class="cls-1" d="m399.21,405.53c-.36-.24-.72-.48-1.08-.72.36.24.72.48,1.08.72Z"/>
  <path class="cls-1" d="m400.19,405.47c-.35.24-.71.48-1.06.72,0-.25,0-.5-.01-.75.36,0,.72.02,1.08.03Z"/>
  <path class="cls-1" d="m415.41,144.27c-.23-.86-.46-1.72-.69-2.59,0,0,.08-.07.08-.07.24,0,.49,0,.73,0l-.08-.09.02,2.72-.06.02Z"/>
  <path class="cls-1" d="m418.13,156.69s.11-.04.11-.04c-.08-.02-.17-.04-.26-.07.05.04.1.07.15.11Z"/>
  <path class="cls-1" d="m421.98,191.28c.02-.27.05-.54.07-.81,0,0-.1.08-.1.08.26.12.51.25.77.37,0,0,.03-.1.03-.1-.26.15-.52.31-.78.46Z"/>
  <path class="cls-1" d="m422.72,190.92c-.26-.12-.51-.25-.77-.37.26.12.51.25.77.37Z"/>
  <path class="cls-1" d="m414.13,140.96c.25,0,.5,0,.75,0l-.08-.09c0,.24,0,.49,0,.73,0,0-.08.07-.08.07,0,0-.16-.08-.16-.08-.11-.24-.23-.48-.34-.73l-.08.09Z"/>
  <path class="cls-1" d="m414.21,140.87c.11.24.23.48.34.73-.47.02-.95.03-1.42.05.15-.26.3-.51.45-.77,0,0-.1.09-.1.09.24-.03.48-.06.72-.1Z"/>
  <path class="cls-1" d="m413.59,140.88c-.15.26-.3.51-.45.77,0,0,.1-.03.1-.03-.11-.25-.22-.49-.33-.74,0,0-.08.09-.08.09.26-.03.51-.06.77-.09Z"/>
  <path class="cls-1" d="m412.9,140.88c.11.25.22.49.33.74-.36-.24-.72-.48-1.08-.72.25,0,.5-.02.75-.02Z"/>
  <path class="cls-1" d="m84.26,171.66c-.11-.23-.23-.47-.34-.7.57-.45,1.14-.9,1.71-1.35,0,.91.01,1.81.02,2.72-.24,0-.48,0-.73,0-.22-.22-.44-.45-.66-.67Z"/>
  <path class="cls-1" d="m415.47,144.25c0-.91-.01-1.81-.02-2.72.25.03.49.06.74.09,0,0-.04-.01-.04-.01-.23.88-.45,1.76-.68,2.64Z"/>
  <path class="cls-1" d="m416.14,140.89c0,.24,0,.48,0,.72,0,0,.04.01.04.01,0-.25,0-.5,0-.75h-.04Z"/>
  <path class="cls-1" d="m277.62,86.64c.24.48.48.95.72,1.43-.24-.48-.48-.95-.72-1.43Z"/>
  <path class="cls-1" d="m276.3,87.41c.25-.25.5-.5.75-.75-.25.25-.5.5-.75.75Z"/>
  <path class="cls-1" d="m276.96,86.01c.25,0,.49,0,.74,0,0,.25,0,.49,0,.74h-.74c0-.25,0-.49,0-.74Z"/>
  <path class="cls-1" d="m398.46,411.32c0,.46,0,.93,0,1.39,0,0,.08-.08.08-.08h-1.39l.09.06v-.68s-.07.06-.07.06l.74-.74s-.1.07-.1.07h.74l-.09-.08Z"/>
  <path class="cls-1" d="m397.26,412.02c-.23-.23-.46-.47-.7-.7,0,0-.06.09-.06.09.25,0,.5,0,.75,0l-.09-.08c0,.25.01.5.02.76l.09-.06Z"/>
  <path class="cls-1" d="m397.24,413.28c-.25.03-.51.06-.76.09.25-.23.51-.45.76-.68,0,0-.09-.06-.09-.06,0,.25,0,.49,0,.74l.08-.09Z"/>
  <path class="cls-1" d="m397.25,411.4c-.25,0-.5,0-.75,0,0-.47.01-.94.02-1.41.24.47.49.94.73,1.41Z"/>
  <path class="cls-1" d="m397.15,413.37c0-.25,0-.49,0-.74.46,0,.93,0,1.39,0v.74h-1.39Z"/>
  <path class="cls-1" d="m416.18,140.87c0,.25,0,.5,0,.75-.25-.03-.49-.06-.74-.09,0,0,.08.09.08.09,0-.25,0-.49,0-.74,0,0-.08.09-.08.09.25-.03.49-.06.74-.09Z"/>
  <path class="cls-1" d="m415.53,140.88c0,.25,0,.49,0,.74-.24,0-.49,0-.73,0,0-.24,0-.49,0-.73.25,0,.49,0,.74,0Z"/>
  <path class="cls-1" d="m78.44,314.45c-1.58.93-2.85,1.93-4.3,2.45-.89.32-2.05-.07-3.09-.15.14-1.03-.08-2.36.48-3.05,2.2-2.72,4.92-2.33,6.91.74Z"/>
  <path class="cls-1" d="m72.9,251.45c.68-.56,1.37-1.12,2.05-1.68-.13.53-.27,1.07-.4,1.6-.25-.03-.5-.06-.75-.1l.08.09c-.33.03-.65.06-.98.09Z"/>
  <path class="cls-1" d="m74.55,251.37c.13-.53.27-1.06.4-1.6,0,0-.09-.02-.09-.02.08.54.15,1.08.23,1.62,0,0,.1-.1.1-.1-.25,0-.5,0-.75,0,0,0,.1.09.1.09Z"/>
  <path class="cls-1" d="m73.25,251.93c-.26,0-.52,0-.78,0,0,0,.1.09.1.09.12-.24.23-.49.35-.73,0,0,.04.06.04.06,0,0,.19-.07.19-.07,0,.25,0,.5,0,.75,0,0,.1-.09.1-.09Z"/>
  <path class="cls-1" d="m72.92,251.29c-.12.24-.23.49-.35.73-.24,0-.48,0-.72,0-.12-.24-.23-.49-.35-.73.47,0,.95,0,1.42,0Z"/>
  <path class="cls-1" d="m72.9,251.45c.33-.03.65-.06.98-.09-.25-.03-.49-.06-.74-.09,0,0-.19.07-.19.07,0,0-.05.11-.05.11Z"/>
  <path class="cls-1" d="m76.5,251.27c0,.25,0,.5,0,.75-.25,0-.5,0-.75,0,.03-.25.06-.5.09-.75,0,0-.08.09-.08.09.25-.03.49-.06.74-.09Z"/>
  <path class="cls-1" d="m77.15,250.6c0,.25,0,.51,0,.76-.25,0-.51,0-.76,0,.25-.25.5-.5.76-.76Z"/>
  <path class="cls-1" d="m75.84,251.28c-.03.25-.06.5-.09.75,0,0,.1-.1.1-.1-.25.03-.5.06-.75.09.03-.25.06-.49.09-.74,0,0-.1.1-.1.1.25-.03.5-.06.75-.1Z"/>
  <path class="cls-1" d="m75.1,252.01c.25-.03.5-.06.75-.09-.03.25-.06.49-.09.74,0,0,.09-.08.09-.08-.25,0-.49,0-.74,0l.09.09c0-.25,0-.49,0-.74l-.09.08Z"/>
  <path class="cls-1" d="m75.19,253.23c-.25.03-.5.06-.74.09.03-.25.06-.5.09-.75,0,0-.08.09-.08.09h.74l-.09-.09c0,.25,0,.49,0,.74l.08-.09Z"/>
  <path class="cls-1" d="m73.79,252.68c.03-.25.06-.5.09-.75,0,0-.08.09-.08.09h.74s-.09-.09-.09-.09c0,.25,0,.49,0,.74,0,0,.08-.09.08-.09-.25.03-.5.06-.74.09Z"/>
  <path class="cls-1" d="m75.1,253.32c0-.25,0-.49,0-.74.25,0,.49,0,.74,0,0,.25,0,.49,0,.74-.25,0-.49,0-.74,0Z"/>
  <path class="cls-1" d="m73.15,251.28c.25.03.49.06.74.09,0,0-.08-.09-.08-.09,0,.25,0,.49,0,.74,0,0,.08-.09.08-.09-.25.03-.49.06-.74.09,0-.25,0-.5,0-.75Z"/>
  <path class="cls-1" d="m498.48,384.8h-6.4c2.43-2.65,4.07-2.68,6.4,0Z"/>
  <path class="cls-1" d="m398.55,411.41h-.74c0-.68,0-1.36,0-2.04h.74c0,.68,0,1.36,0,2.04Z"/>
  <path class="cls-1" d="m397.88,409.47c-.24-.47-.48-.95-.71-1.42.24.47.48.95.71,1.42Z"/>
  <path class="cls-1" d="m399.18,406.08c0,.23-.02.46-.03.68h.04c-.25-.01-.49-.01-.74-.01l.05.02c.23-.23.45-.46.68-.68Z"/>
  <path class="cls-1" d="m398.5,407.39c-.03-.21-.03-.42,0-.63,0,0-.05-.02-.05-.02,0,.25,0,.49,0,.74l.04-.1Z"/>
  <path class="cls-1" d="m399.16,407.48c0,.23.01.46.02.68-.23-.26-.46-.51-.68-.77,0,0-.04.1-.04.1.25,0,.49,0,.74,0h-.04Z"/>
  <path class="cls-1" d="m399.86,408.78c-.25,0-.5.01-.75.02,0-.25.01-.5.02-.76.24.25.49.49.73.74Z"/>
  <path class="cls-1" d="m399.21,408.7c-.25.25-.5.5-.75.75.25-.25.5-.5.75-.75Z"/>
  <path class="cls-1" d="m397.17,412.08c0-.25-.01-.5-.02-.76.25,0,.5.01.76.02-.25.25-.49.49-.74.74Z"/>
  <path class="cls-1" d="m399.16,406.76c0,.24,0,.48,0,.71,0,0,.04.01.04.01,0-.25,0-.49,0-.74,0,0-.04.01-.04.01Z"/>
  <path class="cls-1" d="m427.39,74.5c1.48,2.03,2.43,4.11.9,6.56-1.21,1.94-2.7,2.01-4.03.12q-3.87-5.5,3.13-6.68Z"/>
  <path class="cls-1" d="m428.72,85.6c1.32-1.46,2.43-2.69,3.55-3.91.63.98,2.02,2.32,1.75,2.87-.83,1.75-2.46,2.56-5.3,1.04Z"/>
  <path class="cls-1" d="m424.63,90.12c-1.37,1.01-2.08,1.76-2.96,2.06-.29.1-1.45-1.04-1.38-1.45.14-.75.81-1.78,1.45-1.94.62-.16,1.48.63,2.88,1.32Z"/>
  <path class="cls-1" d="m73.8,252.02c0-.25,0-.49,0-.74.25.03.5.06.75.1,0,0-.1-.09-.1-.09.03.25.06.49.09.74-.25,0-.49,0-.74,0Z"/>
  <path class="cls-1" d="m74.54,252.01c-.03-.25-.06-.49-.09-.74.25,0,.5,0,.75,0-.03.25-.06.49-.09.74,0,0,.09-.08.09-.08-.25,0-.49,0-.74,0l.09.08Z"/>
  <path class="cls-1" d="m74.45,251.93c.25,0,.49,0,.74,0,0,.25,0,.49,0,.74h-.74c0-.25,0-.49,0-.74Z"/>
  <path class="cls-1" d="m399.2,406.75c0,.25,0,.5,0,.74-.25,0-.49,0-.74,0,0-.25,0-.49,0-.74.25,0,.49,0,.74,0Z"/>
</svg>